<svg xmlns="http://www.w3.org/2000/svg" xmlns:xlink="http://www.w3.org/1999/xlink" width="500" zoomAndPan="magnify" viewBox="0 0 375 374.999991" height="500" preserveAspectRatio="xMidYMid meet" version="1.0"><defs><clipPath id="5813513838"><path d="M -44.078125 378.097656 L 161.273438 -121.335938 L 445.671875 -4.398438 L 240.320312 495.03125 Z M -44.078125 378.097656 " clip-rule="nonzero"/></clipPath><clipPath id="50f06251b6"><path d="M -44.078125 378.097656 L 161.273438 -121.335938 L 445.671875 -4.398438 L 240.320312 495.03125 Z M -44.078125 378.097656 " clip-rule="nonzero"/></clipPath><clipPath id="7885698da6"><path d="M -44.078125 378.097656 L 161.273438 -121.335938 L 445.671875 -4.398438 L 240.320312 495.03125 Z M -44.078125 378.097656 " clip-rule="nonzero"/></clipPath><clipPath id="2c72c4b7e7"><path d="M 1 0 L 375 0 L 375 375 L 1 375 Z M 1 0 " clip-rule="nonzero"/></clipPath><clipPath id="c2701de601"><path d="M -44.078125 378.097656 L 161.273438 -121.335938 L 445.671875 -4.398438 L 240.320312 495.03125 Z M -44.078125 378.097656 " clip-rule="nonzero"/></clipPath><clipPath id="b016bb17fc"><path d="M -44.078125 378.097656 L 161.273438 -121.335938 L 445.671875 -4.398438 L 240.320312 495.03125 Z M -44.078125 378.097656 " clip-rule="nonzero"/></clipPath><clipPath id="563739562c"><path d="M -44.078125 378.097656 L 161.273438 -121.335938 L 445.671875 -4.398438 L 240.320312 495.03125 Z M -44.078125 378.097656 " clip-rule="nonzero"/></clipPath><clipPath id="3f0c868448"><path d="M 2 0 L 375 0 L 375 375 L 2 375 Z M 2 0 " clip-rule="nonzero"/></clipPath><clipPath id="4a0a8bfa1b"><path d="M -44.078125 378.097656 L 161.273438 -121.335938 L 445.671875 -4.398438 L 240.320312 495.03125 Z M -44.078125 378.097656 " clip-rule="nonzero"/></clipPath><clipPath id="6250d93474"><path d="M -44.078125 378.097656 L 161.273438 -121.335938 L 445.671875 -4.398438 L 240.320312 495.03125 Z M -44.078125 378.097656 " clip-rule="nonzero"/></clipPath><clipPath id="8c830b11b2"><path d="M -44.078125 378.097656 L 161.273438 -121.335938 L 445.671875 -4.398438 L 240.320312 495.03125 Z M -44.078125 378.097656 " clip-rule="nonzero"/></clipPath><clipPath id="a8ac15d7ea"><path d="M 3 0 L 375 0 L 375 375 L 3 375 Z M 3 0 " clip-rule="nonzero"/></clipPath><clipPath id="5808c99931"><path d="M -44.078125 378.097656 L 161.273438 -121.335938 L 445.671875 -4.398438 L 240.320312 495.03125 Z M -44.078125 378.097656 " clip-rule="nonzero"/></clipPath><clipPath id="4b69379223"><path d="M -44.078125 378.097656 L 161.273438 -121.335938 L 445.671875 -4.398438 L 240.320312 495.03125 Z M -44.078125 378.097656 " clip-rule="nonzero"/></clipPath><clipPath id="4300c2c1ea"><path d="M -44.078125 378.097656 L 161.273438 -121.335938 L 445.671875 -4.398438 L 240.320312 495.03125 Z M -44.078125 378.097656 " clip-rule="nonzero"/></clipPath><clipPath id="09490f767d"><path d="M 4 0 L 375 0 L 375 375 L 4 375 Z M 4 0 " clip-rule="nonzero"/></clipPath><clipPath id="94caa5a092"><path d="M -44.078125 378.097656 L 161.273438 -121.335938 L 445.671875 -4.398438 L 240.320312 495.03125 Z M -44.078125 378.097656 " clip-rule="nonzero"/></clipPath><clipPath id="07d7068dc9"><path d="M -44.078125 378.097656 L 161.273438 -121.335938 L 445.671875 -4.398438 L 240.320312 495.03125 Z M -44.078125 378.097656 " clip-rule="nonzero"/></clipPath><clipPath id="d370390ee9"><path d="M -44.078125 378.097656 L 161.273438 -121.335938 L 445.671875 -4.398438 L 240.320312 495.03125 Z M -44.078125 378.097656 " clip-rule="nonzero"/></clipPath><clipPath id="84024b6ac3"><path d="M 5 0 L 372 0 L 372 375 L 5 375 Z M 5 0 " clip-rule="nonzero"/></clipPath><clipPath id="60d0b7c3bf"><path d="M -44.078125 378.097656 L 161.273438 -121.335938 L 445.671875 -4.398438 L 240.320312 495.03125 Z M -44.078125 378.097656 " clip-rule="nonzero"/></clipPath><clipPath id="417cc092c3"><path d="M -44.078125 378.097656 L 161.273438 -121.335938 L 445.671875 -4.398438 L 240.320312 495.03125 Z M -44.078125 378.097656 " clip-rule="nonzero"/></clipPath><clipPath id="1b3fb62b30"><path d="M -44.078125 378.097656 L 161.273438 -121.335938 L 445.671875 -4.398438 L 240.320312 495.03125 Z M -44.078125 378.097656 " clip-rule="nonzero"/></clipPath><clipPath id="3961dbd2c7"><path d="M 5 0 L 368 0 L 368 375 L 5 375 Z M 5 0 " clip-rule="nonzero"/></clipPath><clipPath id="316168133c"><path d="M -44.078125 378.097656 L 161.273438 -121.335938 L 445.671875 -4.398438 L 240.320312 495.03125 Z M -44.078125 378.097656 " clip-rule="nonzero"/></clipPath><clipPath id="619f7f3a99"><path d="M -44.078125 378.097656 L 161.273438 -121.335938 L 445.671875 -4.398438 L 240.320312 495.03125 Z M -44.078125 378.097656 " clip-rule="nonzero"/></clipPath><clipPath id="1de0220075"><path d="M -44.078125 378.097656 L 161.273438 -121.335938 L 445.671875 -4.398438 L 240.320312 495.03125 Z M -44.078125 378.097656 " clip-rule="nonzero"/></clipPath><clipPath id="438e73d231"><path d="M 6 0 L 364 0 L 364 375 L 6 375 Z M 6 0 " clip-rule="nonzero"/></clipPath><clipPath id="6d536b663b"><path d="M -44.078125 378.097656 L 161.273438 -121.335938 L 445.671875 -4.398438 L 240.320312 495.03125 Z M -44.078125 378.097656 " clip-rule="nonzero"/></clipPath><clipPath id="2c5bef257f"><path d="M -44.078125 378.097656 L 161.273438 -121.335938 L 445.671875 -4.398438 L 240.320312 495.03125 Z M -44.078125 378.097656 " clip-rule="nonzero"/></clipPath><clipPath id="c7ac98e237"><path d="M -44.078125 378.097656 L 161.273438 -121.335938 L 445.671875 -4.398438 L 240.320312 495.03125 Z M -44.078125 378.097656 " clip-rule="nonzero"/></clipPath></defs><rect x="-37.5" width="450" fill="#ffffff" y="-37.499999" height="449.999989" fill-opacity="1"/><rect x="-37.5" width="450" fill="#ffffff" y="-37.499999" height="449.999989" fill-opacity="1"/><rect x="-37.5" width="450" fill="#ffffff" y="-37.499999" height="449.999989" fill-opacity="1"/><g clip-path="url(#5813513838)"><g clip-path="url(#50f06251b6)"><g clip-path="url(#7885698da6)"><path fill="#29abe2" d="M 440.664062 0.90625 C 430.46875 25.695312 402.652344 39.71875 378.730469 44.675781 C 364.445312 47.636719 349.625 48.550781 335.296875 49.4375 C 321.691406 50.28125 307.628906 51.148438 294.058594 53.765625 C 260.785156 60.183594 236.453125 78.089844 228.984375 101.636719 C 223.878906 117.726562 226.238281 136.957031 236.203125 160.414062 C 238.566406 165.976562 241.191406 171.546875 243.738281 176.9375 C 249.726562 189.625 255.910156 202.75 259.058594 216.632812 C 263.113281 234.542969 261.671875 258.804688 245.476562 273.207031 C 234.921875 282.59375 218.539062 286.734375 200.539062 284.554688 C 188.375 283.078125 176.519531 279.175781 165.054688 275.398438 C 161.667969 274.28125 158.160156 273.132812 154.707031 272.054688 C 122.585938 262.085938 93.164062 259.105469 67.261719 263.179688 C 35.875 268.121094 8.734375 283.9375 -7.199219 306.566406 C -25.109375 331.996094 -27.46875 365.53125 -13.070312 390.015625 L -13.617188 390.339844 C -20.867188 378.019531 -24.015625 363.292969 -22.734375 347.765625 C -21.511719 332.984375 -16.179688 318.226562 -7.722656 306.207031 C 8.316406 283.433594 35.605469 267.527344 67.15625 262.558594 C 93.160156 258.460938 122.675781 261.453125 154.890625 271.457031 C 158.355469 272.527344 161.855469 273.6875 165.246094 274.796875 C 176.683594 278.5625 188.503906 282.457031 200.605469 283.917969 C 218.433594 286.074219 234.628906 282 245.046875 272.726562 C 261.035156 258.507812 262.441406 234.5 258.429688 216.769531 C 255.300781 202.949219 249.125 189.859375 243.15625 177.199219 C 240.609375 171.804688 237.980469 166.222656 235.613281 160.65625 C 225.59375 137.054688 223.226562 117.6875 228.378906 101.433594 C 232.417969 88.714844 241.007812 77.832031 253.921875 69.09375 C 265.0625 61.550781 278.902344 56.03125 293.941406 53.132812 C 307.554688 50.511719 321.640625 49.640625 335.257812 48.796875 C 349.570312 47.914062 364.363281 46.996094 378.601562 44.042969 C 404.265625 38.726562 434.4375 22.917969 442.160156 -5.472656 L 442.773438 -5.304688 C 442.191406 -3.164062 441.488281 -1.097656 440.667969 0.894531 Z M 440.664062 0.90625 " fill-opacity="1" fill-rule="nonzero"/><path fill="#29abe2" d="M 437.496094 -1.105469 C 432.757812 10.421875 423.5625 20.773438 410.675781 29.027344 C 400.507812 35.542969 388.273438 40.496094 375.296875 43.367188 C 361.253906 46.46875 346.691406 47.621094 332.605469 48.738281 C 319.242188 49.796875 305.421875 50.894531 292.078125 53.65625 C 263.433594 59.578125 241.292969 73.953125 231.34375 93.089844 C 229.964844 95.734375 228.804688 98.507812 227.898438 101.332031 C 222.804688 117.121094 224.890625 136.125 234.269531 159.449219 C 234.890625 160.992188 235.539062 162.566406 236.261719 164.265625 C 237.820312 167.949219 239.484375 171.671875 241.085938 175.273438 C 246.765625 188.042969 252.636719 201.238281 255.414062 215.101562 C 256.699219 221.546875 257.152344 228.011719 256.769531 234.324219 C 256.121094 244.953125 252.808594 259.804688 240.699219 270.203125 C 226.34375 282.546875 206.644531 282.425781 196.183594 281.261719 C 189.414062 280.503906 182.3125 279.007812 173.160156 276.417969 C 169.363281 275.347656 165.53125 274.175781 161.816406 273.042969 C 158.226562 271.945312 154.515625 270.8125 150.855469 269.773438 C 119.324219 260.8125 90.488281 258.660156 65.152344 263.378906 C 54.660156 265.335938 44.550781 268.574219 35.125 273 C 17.609375 281.21875 3.214844 293.242188 -6.519531 307.777344 C -23.46875 333.082031 -25.246094 366.203125 -10.957031 390.195312 L -11.507812 390.519531 C -25.925781 366.324219 -24.136719 332.933594 -7.054688 307.417969 C 2.738281 292.792969 17.226562 280.691406 34.851562 272.425781 C 44.332031 267.980469 54.484375 264.71875 65.035156 262.757812 C 90.472656 258.027344 119.402344 260.175781 151.027344 269.171875 C 154.691406 270.214844 158.40625 271.34375 162.003906 272.441406 C 165.707031 273.574219 169.539062 274.742188 173.328125 275.820312 C 182.445312 278.402344 189.511719 279.890625 196.25 280.648438 C 206.605469 281.804688 226.101562 281.929688 240.277344 269.742188 C 252.214844 259.484375 255.484375 244.8125 256.121094 234.304688 C 256.5 228.046875 256.054688 221.640625 254.78125 215.246094 C 252.019531 201.453125 246.164062 188.289062 240.5 175.558594 C 238.898438 171.957031 237.238281 168.226562 235.671875 164.539062 C 234.953125 162.835938 234.296875 161.257812 233.679688 159.714844 C 224.246094 136.253906 222.15625 117.101562 227.289062 101.164062 C 228.207031 98.3125 229.382812 95.507812 230.773438 92.828125 C 240.816406 73.519531 263.113281 59.027344 291.949219 53.066406 C 305.332031 50.296875 319.171875 49.203125 332.558594 48.140625 C 346.621094 47.023438 361.152344 45.867188 375.15625 42.785156 C 388.0625 39.933594 400.226562 35.007812 410.328125 28.535156 C 424.621094 19.375 434.332031 7.632812 438.390625 -5.425781 L 439 -5.234375 C 438.5625 -3.832031 438.066406 -2.4375 437.5 -1.0625 Z M 437.496094 -1.105469 " fill-opacity="1" fill-rule="nonzero"/><path fill="#29abe2" d="M 434.433594 -3.199219 C 429.714844 8.28125 419.949219 19.171875 406.695312 27.65625 C 396.664062 34.074219 384.621094 39.054688 371.859375 42.050781 C 358.054688 45.285156 343.753906 46.679688 329.921875 48.027344 C 316.792969 49.304688 303.214844 50.628906 290.101562 53.527344 C 261.878906 59.773438 240.066406 74.117188 230.246094 92.871094 C 228.875 95.484375 227.722656 98.222656 226.808594 101.007812 C 221.664062 116.707031 223.425781 134.960938 232.332031 158.460938 C 232.902344 159.960938 233.515625 161.523438 234.195312 163.234375 C 235.574219 166.675781 237.03125 170.160156 238.4375 173.53125 C 243.808594 186.390625 249.371094 199.695312 251.761719 213.546875 C 252.851562 219.90625 253.125 226.246094 252.578125 232.394531 C 251.660156 242.726562 248.027344 257.148438 235.910156 267.175781 C 221.648438 279.011719 202.164062 279 191.824219 277.945312 C 183.308594 277.070312 175.1875 275.109375 169.054688 273.488281 C 165.582031 272.578125 162.070312 271.589844 158.675781 270.640625 C 154.855469 269.566406 150.898438 268.457031 147.007812 267.457031 C 116.074219 259.484375 87.828125 258.164062 63.046875 263.535156 C 52.847656 265.75 43.066406 269.195312 33.992188 273.78125 C 17.132812 282.285156 3.363281 294.441406 -5.835938 308.925781 C -21.820312 334.105469 -23.03125 366.8125 -8.835938 390.316406 L -9.382812 390.640625 C -23.695312 366.9375 -22.492188 333.960938 -6.375 308.582031 C 2.882812 293.996094 16.746094 281.765625 33.703125 273.207031 C 42.832031 268.597656 52.664062 265.128906 62.910156 262.90625 C 87.785156 257.515625 116.132812 258.832031 147.167969 266.832031 C 151.066406 267.835938 155.023438 268.945312 158.847656 270.023438 C 162.238281 270.976562 165.746094 271.957031 169.210938 272.871094 C 175.320312 274.480469 183.417969 276.4375 191.878906 277.304688 C 202.121094 278.355469 221.414062 278.371094 235.496094 266.679688 C 247.433594 256.792969 251.023438 242.546875 251.925781 232.332031 C 252.472656 226.246094 252.199219 219.960938 251.121094 213.652344 C 248.738281 199.871094 243.199219 186.601562 237.835938 173.773438 C 236.425781 170.402344 234.972656 166.917969 233.589844 163.46875 C 232.902344 161.753906 232.292969 160.1875 231.722656 158.683594 C 222.761719 135.039062 221 116.644531 226.1875 100.808594 C 227.113281 97.992188 228.28125 95.21875 229.664062 92.578125 C 239.570312 73.648438 261.539062 59.1875 289.945312 52.902344 C 303.09375 50 316.691406 48.671875 329.84375 47.390625 C 343.660156 46.042969 357.9375 44.648438 371.703125 41.425781 C 384.394531 38.445312 396.371094 33.496094 406.34375 27.117188 C 420.269531 18.203125 430.3125 6.605469 434.621094 -5.480469 L 435.222656 -5.265625 C 434.980469 -4.574219 434.710938 -3.886719 434.429688 -3.203125 Z M 434.433594 -3.199219 " fill-opacity="1" fill-rule="nonzero"/><path fill="#29abe2" d="M 431.421875 -5.160156 C 426.71875 6.277344 416.527344 17.441406 402.726562 26.277344 C 392.835938 32.609375 380.976562 37.605469 368.429688 40.734375 C 354.863281 44.109375 340.816406 45.742188 327.238281 47.324219 C 314.347656 48.824219 301.015625 50.378906 288.128906 53.410156 C 260.332031 59.980469 238.828125 74.289062 229.15625 92.671875 C 227.800781 95.25 226.644531 97.953125 225.730469 100.703125 C 220.605469 116.078125 222.09375 134.128906 230.410156 157.488281 C 230.9375 158.96875 231.5 160.515625 232.140625 162.226562 C 233.34375 165.414062 234.601562 168.640625 235.820312 171.757812 C 240.890625 184.738281 246.128906 198.15625 248.128906 212.007812 C 249.019531 218.289062 249.109375 224.496094 248.398438 230.484375 C 246.695312 244.871094 240.726562 256.515625 231.144531 264.160156 C 220.644531 272.554688 205.136719 276.28125 187.476562 274.644531 C 179.148438 273.871094 171.074219 272.066406 164.96875 270.582031 C 161.847656 269.832031 158.707031 269.019531 155.660156 268.246094 C 151.570312 267.195312 147.339844 266.117188 143.179688 265.160156 C 112.84375 258.167969 85.179688 257.683594 60.964844 263.71875 C 51.058594 266.191406 41.605469 269.851562 32.875 274.597656 C 16.675781 283.390625 3.53125 295.675781 -5.136719 310.117188 C -20.167969 335.164062 -20.796875 367.457031 -6.710938 390.472656 L -7.253906 390.808594 C -21.460938 367.59375 -20.835938 335.035156 -5.683594 309.789062 C 3.039062 295.246094 16.273438 282.882812 32.566406 274.039062 C 41.351562 269.261719 50.847656 265.582031 60.8125 263.097656 C 85.125 257.039062 112.886719 257.527344 143.328125 264.535156 C 147.488281 265.496094 151.726562 266.578125 155.824219 267.628906 C 158.863281 268.402344 162.007812 269.214844 165.117188 269.960938 C 171.207031 271.4375 179.25 273.238281 187.539062 274.007812 C 205.03125 275.632812 220.382812 271.957031 230.75 263.667969 C 242.6875 254.148438 246.59375 240.324219 247.765625 230.410156 C 248.472656 224.484375 248.386719 218.324219 247.496094 212.101562 C 245.507812 198.320312 240.285156 184.9375 235.230469 171.992188 C 234.007812 168.871094 232.753906 165.640625 231.546875 162.449219 C 230.90625 160.738281 230.335938 159.1875 229.808594 157.703125 C 221.445312 134.199219 219.957031 116.015625 225.121094 100.5 C 226.046875 97.71875 227.214844 94.988281 228.585938 92.375 C 238.351562 73.832031 259.996094 59.398438 287.976562 52.789062 C 300.902344 49.746094 314.25 48.191406 327.160156 46.691406 C 340.722656 45.117188 354.75 43.484375 368.273438 40.121094 C 380.757812 37.011719 392.550781 32.039062 402.386719 25.746094 C 416.082031 16.984375 426.179688 5.925781 430.835938 -5.394531 L 430.871094 -5.484375 L 431.460938 -5.242188 L 431.425781 -5.152344 Z M 431.421875 -5.160156 " fill-opacity="1" fill-rule="nonzero"/><path fill="#29abe2" d="M 427.6875 -5.234375 C 422.714844 5.335938 412.164062 16.316406 398.75 24.898438 C 388.992188 31.136719 377.316406 36.15625 364.984375 39.417969 C 351.660156 42.929688 337.875 44.800781 324.539062 46.613281 C 311.882812 48.335938 298.796875 50.105469 286.140625 53.28125 C 270.050781 57.332031 241.101562 67.808594 228.050781 92.457031 C 226.699219 95.003906 225.554688 97.667969 224.636719 100.378906 C 217.933594 120.160156 223.613281 141.886719 228.46875 156.503906 C 228.988281 158.074219 229.523438 159.640625 230.074219 161.203125 C 231.097656 164.117188 232.164062 167.066406 233.199219 169.917969 C 237.957031 183.027344 242.871094 196.582031 244.46875 210.457031 C 245.164062 216.648438 245.074219 222.734375 244.199219 228.550781 C 242.117188 242.507812 235.945312 253.773438 226.351562 261.128906 C 215.929688 269.15625 200.574219 272.773438 183.113281 271.320312 C 175.027344 270.648438 167.328125 269.085938 160.855469 267.652344 C 158.144531 267.054688 155.441406 266.429688 152.746094 265.804688 C 148.347656 264.789062 143.792969 263.738281 139.324219 262.835938 C 109.578125 256.820312 82.503906 257.167969 58.855469 263.871094 C 49.242188 266.601562 40.117188 270.472656 31.726562 275.378906 C 16.191406 284.453125 3.667969 296.867188 -4.46875 311.273438 C -18.539062 336.183594 -18.59375 368.066406 -4.605469 390.609375 L -5.152344 390.941406 C -12.316406 379.398438 -15.988281 365.546875 -15.769531 350.902344 C -15.5625 336.851562 -11.851562 323.039062 -5.023438 310.960938 C 3.167969 296.457031 15.765625 283.960938 31.398438 274.832031 C 39.832031 269.898438 49.007812 266.003906 58.671875 263.257812 C 82.421875 256.527344 109.59375 256.171875 139.445312 262.210938 C 143.917969 263.113281 148.476562 264.167969 152.878906 265.183594 C 155.570312 265.800781 158.269531 266.429688 160.980469 267.027344 C 167.433594 268.460938 175.109375 270.011719 183.15625 270.679688 C 200.457031 272.117188 215.660156 268.550781 225.953125 260.621094 C 235.410156 253.367188 241.5 242.246094 243.558594 228.453125 C 244.425781 222.691406 244.515625 216.65625 243.828125 210.523438 C 242.242188 196.722656 237.332031 183.207031 232.589844 170.128906 C 231.558594 167.269531 230.480469 164.320312 229.460938 161.40625 C 228.910156 159.84375 228.375 158.273438 227.851562 156.699219 C 222.96875 141.992188 217.253906 120.136719 224.019531 100.164062 C 224.949219 97.417969 226.109375 94.726562 227.472656 92.152344 C 240.640625 67.285156 269.78125 56.734375 285.972656 52.65625 C 298.664062 49.472656 311.769531 47.6875 324.4375 45.964844 C 337.753906 44.15625 351.523438 42.289062 364.808594 38.785156 C 377.078125 35.546875 388.6875 30.550781 398.386719 24.347656 C 411.703125 15.828125 422.171875 4.945312 427.09375 -5.519531 L 427.671875 -5.25 Z M 427.6875 -5.234375 " fill-opacity="1" fill-rule="nonzero"/><path fill="#29abe2" d="M 423.914062 -5.214844 C 418.542969 4.648438 407.917969 15.121094 394.777344 23.519531 C 385.15625 29.664062 373.671875 34.707031 361.558594 38.097656 C 348.472656 41.742188 334.9375 43.855469 321.851562 45.902344 C 309.4375 47.839844 296.59375 49.84375 284.164062 53.160156 C 268.320312 57.40625 239.808594 68.117188 226.949219 92.246094 C 225.613281 94.757812 224.464844 97.386719 223.546875 100.058594 C 216.878906 119.425781 222.058594 140.992188 226.535156 155.523438 C 227.011719 157.078125 227.503906 158.628906 228.011719 160.183594 C 228.859375 162.796875 229.738281 165.40625 230.609375 168.015625 C 235.054688 181.289062 239.644531 195.007812 240.828125 208.917969 C 241.324219 215.019531 241.046875 220.976562 240.015625 226.636719 C 237.558594 240.160156 231.183594 251.042969 221.578125 258.117188 C 208.328125 267.925781 190.984375 268.917969 178.769531 268.023438 C 170.898438 267.445312 163.226562 266.042969 156.761719 264.75 C 154.496094 264.300781 152.246094 263.835938 150.003906 263.375 C 145.242188 262.394531 140.3125 261.382812 135.492188 260.550781 C 106.332031 255.492188 79.84375 256.671875 56.761719 264.058594 C 47.449219 267.042969 38.644531 271.128906 30.605469 276.195312 C 15.726562 285.550781 3.839844 298.089844 -3.769531 312.460938 C -17.089844 337.621094 -16.582031 368.355469 -2.480469 390.765625 L -3.015625 391.105469 C -17.242188 368.503906 -17.761719 337.515625 -4.335938 312.160156 C 3.324219 297.691406 15.289062 285.070312 30.261719 275.652344 C 38.351562 270.558594 47.195312 266.449219 56.566406 263.445312 C 79.746094 256.027344 106.335938 254.839844 135.59375 259.917969 C 140.429688 260.753906 145.359375 261.769531 150.128906 262.75 C 152.371094 263.210938 154.625 263.675781 156.886719 264.125 C 163.332031 265.417969 170.976562 266.816406 178.816406 267.386719 C 190.925781 268.273438 208.109375 267.296875 221.203125 257.605469 C 230.675781 250.632812 236.960938 239.886719 239.394531 226.527344 C 240.421875 220.925781 240.691406 215.015625 240.199219 208.96875 C 239.027344 195.140625 234.449219 181.453125 230.015625 168.222656 C 229.140625 165.617188 228.265625 163.003906 227.417969 160.386719 C 226.910156 158.835938 226.417969 157.28125 225.9375 155.71875 C 221.433594 141.097656 216.222656 119.394531 222.953125 99.859375 C 223.886719 97.152344 225.042969 94.488281 226.398438 91.949219 C 239.367188 67.613281 268.058594 56.808594 284.011719 52.542969 C 296.472656 49.21875 309.328125 47.214844 321.765625 45.273438 C 334.835938 43.234375 348.34375 41.125 361.394531 37.484375 C 373.449219 34.113281 384.878906 29.101562 394.449219 22.984375 C 407.308594 14.765625 418.121094 4.109375 423.367188 -5.523438 L 423.921875 -5.21875 Z M 423.914062 -5.214844 " fill-opacity="1" fill-rule="nonzero"/><path fill="#29abe2" d="M 420.136719 -5.199219 C 414.375 3.871094 403.40625 14.09375 390.800781 22.144531 C 381.316406 28.203125 370.015625 33.265625 358.117188 36.785156 C 345.265625 40.570312 332 42.921875 319.164062 45.195312 C 306.980469 47.355469 294.382812 49.585938 282.1875 53.042969 C 266.578125 57.476562 238.507812 68.445312 225.855469 92.046875 C 224.527344 94.523438 223.382812 97.113281 222.464844 99.753906 C 215.902344 118.476562 220.167969 138.878906 224.609375 154.558594 C 225.046875 156.105469 225.5 157.640625 225.957031 159.179688 C 226.660156 161.535156 227.382812 163.894531 228.105469 166.242188 C 232.21875 179.632812 236.472656 193.484375 237.183594 207.382812 C 237.488281 213.347656 237.035156 219.183594 235.824219 224.726562 C 232.996094 237.808594 226.414062 248.316406 216.789062 255.101562 C 203.652344 264.433594 186.488281 265.476562 174.402344 264.71875 C 166.796875 264.238281 159.453125 263.050781 152.652344 261.832031 C 150.910156 261.523438 149.164062 261.210938 147.429688 260.898438 C 142.242188 259.964844 136.878906 258.992188 131.636719 258.242188 C 103.066406 254.128906 77.160156 256.140625 54.652344 264.226562 C 45.636719 267.46875 37.164062 271.765625 29.464844 276.992188 C 15.242188 286.628906 3.988281 299.292969 -3.09375 313.636719 C -15.453125 338.640625 -14.375 368.972656 -0.367188 390.910156 L -0.90625 391.253906 C -15.027344 369.132812 -16.113281 338.554688 -3.667969 313.351562 C 3.460938 298.914062 14.792969 286.160156 29.109375 276.464844 C 36.847656 271.207031 45.371094 266.890625 54.4375 263.625 C 77.046875 255.511719 103.046875 253.480469 131.730469 257.613281 C 136.984375 258.367188 142.355469 259.335938 147.550781 260.269531 C 149.28125 260.585938 151.019531 260.898438 152.769531 261.207031 C 159.554688 262.417969 166.878906 263.601562 174.449219 264.085938 C 186.433594 264.84375 203.445312 263.800781 216.425781 254.582031 C 225.914062 247.882812 232.410156 237.511719 235.203125 224.589844 C 236.398438 219.101562 236.851562 213.320312 236.550781 207.414062 C 235.84375 193.589844 231.605469 179.78125 227.5 166.429688 C 226.773438 164.078125 226.050781 161.71875 225.34375 159.359375 C 224.886719 157.824219 224.429688 156.285156 223.996094 154.734375 C 219.527344 138.964844 215.242188 118.441406 221.859375 99.546875 C 222.792969 96.878906 223.949219 94.25 225.296875 91.746094 C 238.0625 67.9375 266.316406 56.894531 282.019531 52.425781 C 294.253906 48.96875 306.859375 46.730469 319.054688 44.574219 C 331.875 42.300781 345.128906 39.953125 357.941406 36.175781 C 369.777344 32.671875 381.027344 27.636719 390.460938 21.613281 C 402.988281 13.609375 413.878906 3.460938 419.597656 -5.535156 L 420.132812 -5.191406 Z M 420.136719 -5.199219 " fill-opacity="1" fill-rule="nonzero"/><path fill="#29abe2" d="M 416.355469 -5.175781 C 410.082031 3.207031 398.765625 13.148438 386.828125 20.769531 C 377.480469 26.734375 366.363281 31.820312 354.6875 35.464844 C 342.082031 39.390625 329.066406 41.976562 316.476562 44.484375 C 304.53125 46.863281 292.183594 49.324219 280.210938 52.910156 C 261.441406 58.566406 236.585938 69.914062 224.753906 91.835938 C 223.441406 94.277344 222.300781 96.832031 221.375 99.4375 C 214.851562 117.734375 218.648438 137.984375 222.671875 153.578125 C 223.070312 155.113281 223.476562 156.636719 223.886719 158.15625 C 224.445312 160.191406 225.011719 162.230469 225.578125 164.261719 C 229.363281 177.839844 233.28125 191.890625 233.539062 205.835938 C 233.644531 211.710938 233.003906 217.414062 231.636719 222.804688 C 228.445312 235.445312 221.660156 245.570312 212.007812 252.082031 C 198.992188 260.929688 182.007812 262.039062 170.050781 261.40625 C 163.132812 261.042969 156.453125 260.148438 148.550781 258.910156 L 145.109375 258.378906 C 139.410156 257.492188 133.527344 256.578125 127.789062 255.929688 C 99.792969 252.75 74.480469 255.597656 52.542969 264.390625 C 43.824219 267.894531 35.675781 272.398438 28.324219 277.785156 C 14.761719 287.691406 4.136719 300.492188 -2.417969 314.804688 C -13.792969 339.652344 -12.164062 369.585938 1.746094 391.058594 L 1.210938 391.402344 C -12.8125 369.753906 -14.460938 339.585938 -2.996094 314.539062 C 3.601562 300.128906 14.300781 287.238281 27.949219 277.273438 C 35.339844 271.855469 43.539062 267.324219 52.304688 263.796875 C 74.332031 254.964844 99.753906 252.105469 127.855469 255.296875 C 133.609375 255.945312 139.496094 256.863281 145.199219 257.75 L 148.644531 258.28125 C 156.523438 259.507812 163.1875 260.402344 170.078125 260.769531 C 181.933594 261.394531 198.777344 260.296875 211.644531 251.554688 C 221.160156 245.128906 227.859375 235.136719 231.007812 222.652344 C 232.363281 217.316406 232.996094 211.664062 232.890625 205.855469 C 232.636719 191.980469 228.734375 177.980469 224.953125 164.429688 C 224.390625 162.402344 223.820312 160.363281 223.265625 158.328125 C 222.847656 156.804688 222.445312 155.277344 222.046875 153.742188 C 217.996094 138.058594 214.1875 117.691406 220.765625 99.226562 C 221.703125 96.59375 222.855469 94.003906 224.191406 91.53125 C 236.121094 69.425781 261.136719 58 280.023438 52.300781 C 292.023438 48.699219 304.386719 46.238281 316.347656 43.859375 C 328.917969 41.359375 341.917969 38.773438 354.492188 34.855469 C 366.121094 31.222656 377.183594 26.167969 386.480469 20.226562 C 398.359375 12.644531 409.609375 2.757812 415.839844 -5.566406 L 416.351562 -5.183594 Z M 416.355469 -5.175781 " fill-opacity="1" fill-rule="nonzero"/><path fill="#29abe2" d="M 412.574219 -5.160156 C 405.523438 2.734375 393.859375 12.371094 382.859375 19.390625 C 373.652344 25.265625 362.722656 30.367188 351.25 34.148438 C 338.882812 38.207031 326.128906 41.039062 313.789062 43.777344 C 302.082031 46.371094 289.972656 49.0625 278.234375 52.792969 C 259.757812 58.695312 235.289062 70.222656 223.660156 91.632812 C 222.355469 94.035156 221.21875 96.5625 220.289062 99.128906 C 213.808594 116.996094 217.128906 137.097656 220.742188 152.605469 C 221.097656 154.121094 221.460938 155.636719 221.832031 157.136719 C 222.246094 158.832031 222.667969 160.519531 223.089844 162.210938 C 226.546875 176.007812 230.109375 190.273438 229.890625 204.296875 C 229.796875 210.066406 228.980469 215.648438 227.445312 220.890625 C 223.90625 233.085938 216.910156 242.824219 207.230469 249.0625 C 197.03125 255.6875 182.664062 258.8125 165.699219 258.101562 C 158.355469 257.796875 151.175781 256.898438 144.457031 256.003906 L 143.089844 255.824219 C 136.5 254.964844 130.277344 254.148438 123.953125 253.628906 C 96.53125 251.371094 71.800781 255.054688 50.460938 264.566406 C 42.035156 268.332031 34.214844 273.046875 27.207031 278.59375 C 14.308594 288.765625 4.308594 301.699219 -1.722656 315.984375 C -1.820312 316.21875 -1.917969 316.457031 -2.015625 316.691406 C -12.253906 341.59375 -10.019531 370.082031 3.875 391.214844 L 3.34375 391.570312 C -3.75 380.78125 -7.941406 367.816406 -8.785156 354.066406 C -9.585938 340.941406 -7.328125 327.675781 -2.308594 315.746094 C 3.757812 301.359375 13.832031 288.34375 26.816406 278.101562 C 33.867188 272.523438 41.734375 267.78125 50.207031 263.992188 C 71.648438 254.433594 96.480469 250.738281 124.011719 253.003906 C 130.347656 253.523438 136.578125 254.339844 143.179688 255.203125 L 144.546875 255.378906 C 151.257812 256.269531 158.417969 257.167969 165.734375 257.476562 C 182.574219 258.183594 196.804688 255.09375 206.894531 248.539062 C 216.449219 242.386719 223.347656 232.765625 226.847656 220.71875 C 228.363281 215.539062 229.175781 210.011719 229.261719 204.292969 C 229.484375 190.355469 225.921875 176.128906 222.484375 162.375 C 222.0625 160.683594 221.640625 158.996094 221.21875 157.300781 C 220.847656 155.789062 220.484375 154.277344 220.128906 152.757812 C 216.488281 137.15625 213.15625 116.941406 219.691406 98.917969 C 220.636719 96.320312 221.78125 93.765625 223.105469 91.335938 C 234.839844 69.742188 259.457031 58.132812 278.042969 52.199219 C 289.8125 48.460938 301.933594 45.765625 313.652344 43.171875 C 325.972656 40.4375 338.71875 37.609375 351.054688 33.558594 C 362.46875 29.796875 373.347656 24.714844 382.515625 18.871094 C 393.46875 11.878906 405.082031 2.289062 412.101562 -5.566406 L 412.578125 -5.144531 Z M 412.574219 -5.160156 " fill-opacity="1" fill-rule="nonzero"/><path fill="#29abe2" d="M 408.785156 -5.132812 C 405.410156 -2.019531 393.265625 8.839844 378.878906 18.015625 C 369.675781 23.886719 359.226562 28.871094 347.816406 32.832031 C 335.683594 37.03125 323.191406 40.097656 311.101562 43.066406 C 299.632812 45.882812 287.773438 48.796875 276.257812 52.671875 C 258.074219 58.816406 233.992188 70.523438 222.5625 91.421875 C 221.261719 93.789062 220.136719 96.28125 219.199219 98.808594 C 212.804688 116.136719 215.414062 135.234375 218.808594 151.628906 C 219.117188 153.136719 219.441406 154.632812 219.761719 156.128906 C 220.050781 157.453125 220.347656 158.78125 220.640625 160.101562 C 223.746094 174.140625 226.964844 188.65625 226.242188 202.753906 C 225.949219 208.429688 224.945312 213.886719 223.257812 218.96875 C 219.320312 230.875 212.3125 239.984375 202.445312 246.039062 C 192.214844 252.375 178.386719 255.316406 161.34375 254.792969 C 154.425781 254.582031 147.742188 253.894531 140.351562 253.089844 C 133.101562 252.3125 126.574219 251.648438 120.109375 251.324219 C 93.246094 249.980469 69.109375 254.492188 48.363281 264.738281 C 40.242188 268.757812 32.738281 273.6875 26.078125 279.394531 C 13.839844 289.839844 4.460938 302.902344 -1.035156 317.164062 C -10.632812 342.0625 -7.9375 370.488281 5.992188 391.363281 L 5.460938 391.714844 C -8.582031 370.679688 -11.296875 342.019531 -1.632812 316.933594 C 3.910156 302.5625 13.34375 289.414062 25.664062 278.910156 C 32.367188 273.167969 39.910156 268.207031 48.078125 264.167969 C 68.929688 253.875 93.175781 249.339844 120.144531 250.691406 C 126.625 251.011719 133.160156 251.683594 140.425781 252.457031 C 147.804688 253.265625 154.472656 253.945312 161.367188 254.164062 C 178.28125 254.6875 191.992188 251.777344 202.121094 245.507812 C 211.855469 239.535156 218.765625 230.542969 222.660156 218.777344 C 224.335938 213.746094 225.324219 208.351562 225.617188 202.730469 C 226.332031 188.714844 223.125 174.242188 220.027344 160.25 C 219.730469 158.921875 219.441406 157.601562 219.148438 156.277344 C 218.820312 154.777344 218.5 153.28125 218.1875 151.773438 C 214.777344 135.289062 212.152344 116.082031 218.605469 98.609375 C 219.546875 96.046875 220.695312 93.527344 222.003906 91.128906 C 233.53125 70.050781 257.761719 58.261719 276.058594 52.085938 C 287.597656 48.203125 299.472656 45.292969 310.957031 42.46875 C 323.027344 39.503906 335.515625 36.4375 347.613281 32.246094 C 358.972656 28.296875 369.386719 23.332031 378.542969 17.492188 C 389.9375 10.226562 401.414062 0.808594 408.359375 -5.582031 L 408.792969 -5.113281 Z M 408.785156 -5.132812 " fill-opacity="1" fill-rule="nonzero"/><path fill="#29abe2" d="M 405 -5.109375 C 403.308594 -3.863281 401.300781 -2.339844 399.175781 -0.71875 C 392.292969 4.511719 383.730469 11.019531 374.917969 16.636719 C 365.855469 22.410156 355.585938 27.414062 344.390625 31.515625 C 332.503906 35.84375 320.261719 39.15625 308.421875 42.359375 C 297.191406 45.394531 285.570312 48.535156 274.28125 52.546875 C 248.242188 61.84375 230.476562 74.851562 221.46875 91.210938 C 220.183594 93.550781 219.050781 96 218.113281 98.496094 C 211.769531 115.378906 213.925781 134.339844 216.875 150.65625 C 217.144531 152.144531 217.425781 153.632812 217.707031 155.113281 L 218.246094 157.925781 C 220.996094 172.230469 223.851562 187.019531 222.597656 201.214844 C 222.109375 206.796875 220.917969 212.128906 219.074219 217.054688 C 214.800781 228.464844 207.605469 237.207031 197.671875 243.023438 C 187.519531 248.972656 173.832031 251.820312 157 251.484375 C 150.140625 251.351562 143.367188 250.773438 136.8125 250.214844 L 136.265625 250.167969 C 128.78125 249.550781 122.515625 249.117188 116.277344 249.011719 C 90.332031 248.570312 66.125 254.066406 46.269531 264.898438 C 38.449219 269.171875 31.273438 274.316406 24.953125 280.179688 C 13.375 290.882812 4.628906 304.070312 -0.339844 318.324219 C -8.96875 343.042969 -5.71875 371.078125 8.117188 391.492188 L 7.589844 391.847656 C -6.363281 371.269531 -9.628906 343.011719 -0.941406 318.109375 C 4.066406 303.765625 12.871094 290.480469 24.519531 279.707031 C 30.882812 273.804688 38.097656 268.636719 45.964844 264.332031 C 65.921875 253.441406 90.234375 247.921875 116.285156 248.367188 C 122.539062 248.472656 128.816406 248.902344 136.316406 249.527344 L 136.863281 249.574219 C 143.40625 250.125 150.171875 250.703125 157.011719 250.84375 C 173.726562 251.171875 187.296875 248.355469 197.351562 242.464844 C 207.160156 236.71875 214.269531 228.101562 218.476562 216.824219 C 220.308594 211.945312 221.484375 206.675781 221.972656 201.152344 C 223.210938 187.046875 220.371094 172.296875 217.628906 158.035156 L 217.089844 155.222656 C 216.808594 153.742188 216.523438 152.25 216.253906 150.757812 C 213.292969 134.355469 211.117188 115.289062 217.519531 98.265625 C 218.46875 95.738281 219.605469 93.257812 220.90625 90.898438 C 229.996094 74.398438 247.875 61.292969 274.066406 51.941406 C 285.378906 47.925781 297.007812 44.78125 308.257812 41.738281 C 320.082031 38.539062 332.3125 35.238281 344.171875 30.914062 C 355.324219 26.832031 365.550781 21.84375 374.570312 16.09375 C 383.363281 10.488281 391.914062 3.992188 398.785156 -1.230469 C 400.914062 -2.851562 402.925781 -4.378906 404.617188 -5.625 Z M 405 -5.109375 " fill-opacity="1" fill-rule="nonzero"/><path fill="#29abe2" d="M 401.199219 -5.089844 C 397.390625 -2.921875 392.441406 0.550781 386.707031 4.566406 C 381.835938 7.972656 376.328125 11.832031 370.9375 15.261719 C 362.011719 20.941406 351.925781 25.972656 340.953125 30.203125 C 329.308594 34.675781 317.320312 38.222656 305.734375 41.652344 C 294.734375 44.910156 283.359375 48.273438 272.304688 52.421875 C 246.683594 62.082031 229.207031 75.066406 220.367188 91 C 219.089844 93.300781 217.964844 95.71875 217.03125 98.179688 C 210.757812 114.578125 212.324219 132.621094 214.949219 149.679688 C 215.175781 151.15625 215.410156 152.625 215.648438 154.09375 L 215.902344 155.671875 C 218.292969 170.269531 220.757812 185.367188 218.953125 199.667969 C 218.265625 205.152344 216.890625 210.355469 214.878906 215.128906 C 210.285156 226.078125 202.886719 234.449219 192.886719 239.996094 C 182.863281 245.554688 169.320312 248.304688 152.640625 248.171875 C 146.46875 248.121094 140.359375 247.742188 134.453125 247.382812 L 132.167969 247.242188 C 126.3125 246.902344 119.386719 246.578125 112.4375 246.695312 C 87.023438 247.125 63.417969 253.476562 44.171875 265.054688 C 36.652344 269.589844 29.804688 274.941406 23.816406 280.96875 C 12.902344 291.921875 4.78125 305.242188 0.332031 319.484375 C -7.316406 344.011719 -3.527344 371.65625 10.226562 391.628906 L 9.699219 391.992188 C -4.164062 371.863281 -7.988281 344.003906 -0.277344 319.292969 C 4.195312 304.957031 12.371094 291.546875 23.359375 280.519531 C 29.382812 274.457031 36.273438 269.070312 43.835938 264.511719 C 63.175781 252.871094 86.894531 246.488281 112.414062 246.058594 C 119.386719 245.9375 126.328125 246.265625 132.195312 246.605469 L 134.480469 246.746094 C 140.386719 247.105469 146.484375 247.480469 152.636719 247.527344 C 169.210938 247.667969 182.644531 244.941406 192.570312 239.433594 C 202.445312 233.949219 209.753906 225.6875 214.289062 214.875 C 216.273438 210.164062 217.636719 205.003906 218.316406 199.578125 C 220.105469 185.363281 217.644531 170.316406 215.265625 155.761719 L 215.011719 154.183594 C 214.773438 152.714844 214.539062 151.238281 214.3125 149.761719 C 211.675781 132.617188 210.105469 114.46875 216.433594 97.941406 C 217.386719 95.449219 218.523438 93.007812 219.808594 90.683594 C 228.722656 74.605469 246.308594 61.53125 272.078125 51.8125 C 283.160156 47.652344 294.542969 44.285156 305.558594 41.027344 C 317.128906 37.601562 329.101562 34.054688 340.726562 29.59375 C 351.65625 25.378906 361.710938 20.367188 370.597656 14.714844 C 375.976562 11.289062 381.484375 7.4375 386.339844 4.03125 C 392.085938 0.00390625 397.050781 -3.46875 400.886719 -5.652344 L 401.199219 -5.09375 Z M 401.199219 -5.089844 " fill-opacity="1" fill-rule="nonzero"/><path fill="#29abe2" d="M 397.398438 -5.066406 C 392.253906 -2.9375 385.039062 1.894531 377.40625 7.011719 C 373.988281 9.300781 370.460938 11.667969 366.964844 13.890625 C 358.179688 19.476562 348.273438 24.523438 337.519531 28.890625 C 326.109375 33.5 314.390625 37.285156 303.050781 40.949219 C 292.285156 44.425781 281.164062 48.015625 270.332031 52.308594 C 244.761719 62.480469 228.0625 75.070312 219.277344 90.800781 C 218.015625 93.066406 216.890625 95.449219 215.949219 97.875 C 209.738281 113.804688 210.871094 131.726562 213.019531 148.714844 C 213.207031 150.175781 213.398438 151.636719 213.59375 153.089844 L 213.628906 153.375 C 215.632812 168.289062 217.707031 183.714844 215.316406 198.136719 C 214.421875 203.523438 212.867188 208.605469 210.699219 213.226562 C 205.792969 223.707031 198.195312 231.707031 188.113281 236.992188 C 178.101562 242.242188 165.082031 244.816406 148.296875 244.882812 C 142.851562 244.902344 137.4375 244.695312 132.203125 244.5 C 130.820312 244.449219 129.441406 244.398438 128.066406 244.351562 C 120.238281 244.101562 114.234375 244.121094 108.597656 244.414062 C 83.703125 245.707031 60.695312 252.914062 42.078125 265.25 C 34.859375 270.039062 28.339844 275.605469 22.691406 281.792969 C 12.429688 292.996094 4.941406 306.445312 1.027344 320.683594 C -5.761719 345.378906 -1.527344 371.96875 12.351562 391.808594 L 11.832031 392.171875 C -2.15625 372.175781 -6.425781 345.394531 0.414062 320.515625 C 4.355469 306.179688 11.894531 292.636719 22.222656 281.359375 C 27.902344 275.136719 34.460938 269.53125 41.722656 264.714844 C 60.441406 252.3125 83.558594 245.074219 108.5625 243.773438 C 114.222656 243.476562 120.242188 243.457031 128.089844 243.707031 C 129.464844 243.753906 130.84375 243.804688 132.226562 243.855469 C 137.453125 244.054688 142.859375 244.257812 148.292969 244.238281 C 164.976562 244.179688 177.898438 241.625 187.816406 236.429688 C 197.773438 231.207031 205.277344 223.308594 210.117188 212.957031 C 212.265625 208.390625 213.796875 203.371094 214.679688 198.035156 C 217.058594 183.703125 214.988281 168.328125 212.988281 153.453125 L 212.953125 153.171875 C 212.757812 151.714844 212.566406 150.257812 212.382812 148.789062 C 210.222656 131.722656 209.085938 113.710938 215.347656 97.640625 C 216.300781 95.191406 217.4375 92.78125 218.71875 90.488281 C 227.578125 74.625 244.382812 61.945312 270.09375 51.714844 C 280.949219 47.417969 292.085938 43.820312 302.855469 40.335938 C 314.183594 36.679688 325.898438 32.894531 337.28125 28.296875 C 348 23.945312 357.875 18.914062 366.625 13.347656 C 370.109375 11.128906 373.636719 8.769531 377.050781 6.480469 C 384.714844 1.347656 391.953125 -3.5 397.15625 -5.65625 L 397.402344 -5.066406 Z M 397.398438 -5.066406 " fill-opacity="1" fill-rule="nonzero"/><path fill="#29abe2" d="M 393.59375 -5.054688 C 387.425781 -3.386719 378.792969 2.242188 369.660156 8.195312 C 367.464844 9.621094 365.203125 11.105469 362.988281 12.507812 C 354.34375 18.007812 344.621094 23.070312 334.085938 27.566406 C 322.917969 32.3125 311.449219 36.339844 300.359375 40.234375 C 289.835938 43.929688 278.957031 47.75 268.351562 52.183594 C 243.183594 62.742188 226.773438 75.304688 218.171875 90.59375 C 216.917969 92.820312 215.800781 95.167969 214.851562 97.558594 C 208.402344 113.800781 209.519531 131.976562 211.078125 147.734375 C 211.21875 149.1875 211.371094 150.632812 211.523438 152.074219 C 213 166.125 214.667969 182.050781 211.660156 196.59375 C 210.566406 201.886719 208.828125 206.835938 206.503906 211.300781 C 201.304688 221.3125 193.507812 228.9375 183.328125 233.964844 C 173.492188 238.816406 160.609375 241.296875 143.941406 241.5625 C 139.25 241.632812 134.578125 241.5625 130.054688 241.496094 C 128.011719 241.460938 125.984375 241.433594 123.96875 241.417969 C 116.550781 241.371094 110.445312 241.589844 104.753906 242.089844 C 80.359375 244.234375 57.957031 252.296875 39.976562 265.398438 C 33.058594 270.441406 26.863281 276.21875 21.558594 282.566406 C 11.820312 294.179688 5.140625 307.390625 1.707031 321.839844 C -4.105469 346.324219 0.660156 372.53125 14.46875 391.941406 L 13.949219 392.3125 C 0.0390625 372.757812 -4.765625 346.359375 1.089844 321.695312 C 4.546875 307.152344 11.269531 293.855469 21.078125 282.164062 C 26.421875 275.773438 32.652344 269.957031 39.605469 264.886719 C 57.6875 251.71875 80.191406 243.613281 104.703125 241.457031 C 110.414062 240.949219 116.542969 240.734375 123.976562 240.78125 C 125.992188 240.796875 128.027344 240.828125 130.066406 240.859375 C 134.585938 240.925781 139.257812 241 143.933594 240.925781 C 160.511719 240.664062 173.304688 238.199219 183.050781 233.394531 C 193.101562 228.433594 200.804688 220.898438 205.941406 211.007812 C 208.246094 206.59375 209.960938 201.699219 211.046875 196.464844 C 214.035156 182.019531 212.367188 166.140625 210.898438 152.132812 C 210.746094 150.691406 210.597656 149.238281 210.457031 147.789062 C 208.894531 131.953125 207.773438 113.6875 214.269531 97.3125 C 215.230469 94.890625 216.355469 92.523438 217.625 90.273438 C 226.300781 74.859375 242.8125 62.203125 268.113281 51.589844 C 278.734375 47.148438 289.621094 43.324219 300.15625 39.625 C 311.234375 35.734375 322.691406 31.714844 333.839844 26.976562 C 344.34375 22.496094 354.035156 17.449219 362.65625 11.964844 C 364.859375 10.5625 367.128906 9.085938 369.316406 7.65625 C 378.496094 1.664062 387.167969 -3.988281 393.433594 -5.675781 L 393.601562 -5.0625 Z M 393.59375 -5.054688 " fill-opacity="1" fill-rule="nonzero"/><path fill="#29abe2" d="M 389.789062 -5.046875 C 382.753906 -4.09375 372.632812 2.402344 362.847656 8.679688 C 361.5625 9.503906 360.289062 10.324219 359.019531 11.132812 C 350.515625 16.539062 340.96875 21.625 330.65625 26.253906 C 319.726562 31.136719 308.519531 35.402344 297.679688 39.527344 C 287.394531 43.441406 276.753906 47.488281 266.382812 52.054688 C 250.582031 59.035156 228.289062 70.609375 217.085938 90.382812 C 215.847656 92.574219 214.726562 94.882812 213.777344 97.242188 C 207.40625 112.980469 208.003906 130.332031 209.15625 146.757812 C 209.253906 148.199219 209.363281 149.628906 209.472656 151.058594 C 210.675781 167.125 211.398438 181.535156 208.023438 195.058594 C 206.730469 200.25 204.8125 205.070312 202.320312 209.386719 C 196.835938 218.929688 188.839844 226.183594 178.554688 230.945312 C 165.730469 236.878906 150.179688 237.960938 139.597656 238.257812 C 135.699219 238.367188 131.796875 238.394531 128.023438 238.421875 C 125.339844 238.441406 122.566406 238.457031 119.878906 238.503906 C 112.820312 238.652344 106.621094 239.066406 100.921875 239.785156 C 77.015625 242.777344 55.214844 251.695312 37.886719 265.5625 C 31.28125 270.863281 25.40625 276.851562 20.429688 283.367188 C 11.351562 295.21875 5.285156 308.558594 2.394531 323.011719 C -2.457031 347.269531 2.851562 373.09375 16.589844 392.082031 L 16.070312 392.453125 C 2.234375 373.320312 -3.117188 347.3125 1.769531 322.886719 C 4.675781 308.335938 10.78125 294.910156 19.921875 282.976562 C 24.925781 276.421875 30.832031 270.394531 37.484375 265.066406 C 54.90625 251.121094 76.816406 242.15625 100.839844 239.148438 C 106.5625 238.429688 112.78125 238.011719 119.867188 237.863281 C 122.554688 237.8125 125.335938 237.796875 128.019531 237.777344 C 131.789062 237.75 135.6875 237.726562 139.578125 237.617188 C 150.105469 237.324219 165.570312 236.246094 178.289062 230.367188 C 188.453125 225.667969 196.351562 218.496094 201.765625 209.070312 C 204.226562 204.804688 206.121094 200.035156 207.40625 194.90625 C 210.757812 181.46875 210.035156 167.125 208.828125 151.109375 C 208.722656 149.679688 208.613281 148.246094 208.515625 146.804688 C 207.355469 130.308594 206.761719 112.871094 213.183594 97.003906 C 214.144531 94.617188 215.273438 92.289062 216.53125 90.070312 C 227.828125 70.140625 250.246094 58.5 266.125 51.472656 C 276.515625 46.898438 287.15625 42.847656 297.457031 38.929688 C 308.289062 34.804688 319.484375 30.546875 330.398438 25.671875 C 340.683594 21.058594 350.203125 15.988281 358.679688 10.597656 C 359.949219 9.796875 361.222656 8.976562 362.503906 8.15625 C 372.347656 1.839844 382.53125 -4.695312 389.710938 -5.671875 L 389.792969 -5.039062 Z M 389.789062 -5.046875 " fill-opacity="1" fill-rule="nonzero"/></g></g></g><g clip-path="url(#2c72c4b7e7)"><g clip-path="url(#c2701de601)"><g clip-path="url(#b016bb17fc)"><g clip-path="url(#563739562c)"><path fill="#29abe2" d="M 385.980469 -5.039062 C 378.171875 -4.960938 366.742188 2.3125 356.664062 8.730469 L 355.046875 9.761719 C 346.675781 15.074219 337.316406 20.179688 327.222656 24.9375 C 316.535156 29.957031 305.585938 34.464844 294.996094 38.820312 C 284.945312 42.957031 274.550781 47.226562 264.410156 51.941406 C 247.546875 59.792969 226.804688 71.234375 215.988281 90.179688 C 214.757812 92.332031 213.652344 94.605469 212.6875 96.933594 L 212.664062 96.996094 C 206.410156 112.203125 206.550781 129.441406 207.222656 145.792969 C 207.28125 147.164062 207.339844 148.542969 207.402344 149.902344 L 207.410156 150.050781 C 208.082031 165.234375 208.363281 179.976562 204.378906 193.523438 C 202.878906 198.621094 200.777344 203.308594 198.132812 207.480469 C 192.367188 216.589844 184.171875 223.472656 173.78125 227.9375 C 161.5 233.269531 146.738281 234.492188 135.253906 234.957031 C 132.183594 235.078125 129.097656 235.167969 126.113281 235.25 C 122.707031 235.347656 119.1875 235.441406 115.789062 235.59375 C 108.949219 235.925781 102.832031 236.546875 97.089844 237.484375 C 73.648438 241.316406 52.457031 251.089844 35.792969 265.738281 C 29.492188 271.289062 23.941406 277.492188 19.308594 284.171875 C 10.890625 296.253906 5.429688 309.71875 3.085938 324.191406 C -0.863281 348.570312 4.832031 373.371094 18.71875 392.238281 L 18.203125 392.613281 C 4.222656 373.609375 -1.515625 348.632812 2.460938 324.085938 C 4.824219 309.519531 10.3125 295.964844 18.789062 283.800781 C 23.453125 277.085938 29.035156 270.839844 35.378906 265.257812 C 52.132812 250.523438 73.433594 240.703125 96.992188 236.851562 C 102.765625 235.90625 108.902344 235.285156 115.769531 234.953125 C 119.171875 234.792969 122.699219 234.703125 126.101562 234.605469 C 129.082031 234.519531 132.164062 234.4375 135.226562 234.3125 C 146.660156 233.84375 161.339844 232.632812 173.527344 227.34375 C 183.804688 222.925781 191.902344 216.128906 197.59375 207.128906 C 200.210938 203.015625 202.28125 198.375 203.769531 193.335938 C 207.726562 179.886719 207.453125 165.191406 206.773438 150.074219 L 206.765625 149.925781 C 206.707031 148.558594 206.644531 147.1875 206.589844 145.808594 C 205.910156 129.382812 205.773438 112.074219 212.078125 96.742188 L 212.105469 96.679688 C 213.070312 94.328125 214.195312 92.03125 215.441406 89.851562 C 226.351562 70.75 247.199219 59.238281 264.148438 51.351562 C 274.304688 46.636719 284.710938 42.359375 294.765625 38.222656 C 305.347656 33.871094 316.292969 29.367188 326.964844 24.355469 C 337.039062 19.609375 346.375 14.519531 354.722656 9.21875 L 356.339844 8.191406 C 366.992188 1.414062 378.003906 -5.59375 385.996094 -5.675781 L 386.003906 -5.039062 Z M 385.980469 -5.039062 " fill-opacity="1" fill-rule="nonzero"/></g></g></g></g><g clip-path="url(#3f0c868448)"><g clip-path="url(#4a0a8bfa1b)"><g clip-path="url(#6250d93474)"><g clip-path="url(#8c830b11b2)"><path fill="#29abe2" d="M 382.183594 -5.039062 C 373.664062 -5.953125 361.664062 1.664062 351.074219 8.382812 C 342.847656 13.605469 333.664062 18.730469 323.789062 23.621094 C 313.335938 28.777344 302.644531 33.523438 292.304688 38.113281 C 282.488281 42.464844 272.34375 46.96875 262.425781 51.8125 C 244.800781 60.457031 225.375 71.746094 214.886719 89.976562 C 213.671875 92.09375 212.558594 94.332031 211.597656 96.621094 C 205.394531 111.339844 205.082031 127.808594 205.285156 144.824219 L 205.335938 149.039062 C 205.527344 163.347656 205.328125 178.453125 200.71875 191.984375 C 199.019531 196.972656 196.734375 201.542969 193.929688 205.558594 C 187.914062 214.199219 179.523438 220.707031 168.984375 224.910156 C 157.164062 229.675781 143.089844 230.988281 130.882812 231.644531 C 128.671875 231.761719 126.472656 231.863281 124.285156 231.96875 C 119.921875 232.175781 115.8125 232.367188 111.675781 232.679688 C 105.042969 233.1875 99.011719 234.003906 93.234375 235.175781 C 70.242188 239.839844 49.652344 250.46875 33.679688 265.902344 C 27.679688 271.710938 22.460938 278.125 18.160156 284.960938 C 10.398438 297.28125 5.550781 310.871094 3.757812 325.363281 C 0.765625 349.484375 6.988281 373.914062 20.820312 392.390625 L 20.3125 392.773438 C 6.382812 374.164062 0.117188 349.570312 3.125 325.289062 C 4.929688 310.699219 9.808594 297.023438 17.621094 284.628906 C 21.949219 277.746094 27.203125 271.292969 33.238281 265.453125 C 49.292969 249.929688 69.996094 239.25 93.109375 234.558594 C 98.910156 233.382812 104.96875 232.558594 111.632812 232.054688 C 115.769531 231.742188 119.890625 231.550781 124.257812 231.347656 C 126.441406 231.246094 128.644531 231.136719 130.851562 231.019531 C 143.007812 230.367188 157.011719 229.054688 168.746094 224.328125 C 179.164062 220.171875 187.464844 213.738281 193.40625 205.207031 C 196.175781 201.238281 198.433594 196.722656 200.117188 191.785156 C 204.699219 178.34375 204.890625 163.304688 204.703125 149.054688 L 204.644531 144.835938 C 204.441406 127.757812 204.804688 111.214844 211.003906 96.386719 C 211.976562 94.070312 213.09375 91.808594 214.324219 89.667969 C 224.902344 71.292969 244.429688 59.9375 262.140625 51.253906 C 272.070312 46.402344 282.222656 41.902344 292.039062 37.542969 C 302.378906 32.960938 313.066406 28.21875 323.5 23.0625 C 333.351562 18.183594 342.515625 13.070312 350.726562 7.859375 C 361.398438 1.085938 373.503906 -6.589844 382.242188 -5.65625 L 382.175781 -5.019531 Z M 382.183594 -5.039062 " fill-opacity="1" fill-rule="nonzero"/></g></g></g></g><g clip-path="url(#a8ac15d7ea)"><g clip-path="url(#5808c99931)"><g clip-path="url(#4b69379223)"><g clip-path="url(#4300c2c1ea)"><path fill="#29abe2" d="M 378.382812 -5.050781 C 369.230469 -7.03125 355.90625 1.410156 347.097656 6.992188 C 339.007812 12.125 330.003906 17.269531 320.347656 22.289062 C 310.136719 27.585938 299.703125 32.570312 289.609375 37.390625 C 280.03125 41.964844 270.132812 46.691406 260.441406 51.679688 C 242.21875 61.082031 223.960938 72.199219 213.78125 89.753906 C 212.570312 91.839844 211.464844 94.039062 210.503906 96.296875 C 203.9375 111.613281 203.605469 129.484375 203.347656 143.832031 L 203.269531 148.011719 C 203.023438 161.457031 202.324219 176.925781 197.066406 190.433594 C 195.160156 195.335938 192.691406 199.765625 189.730469 203.632812 C 183.398438 211.917969 175.050781 217.886719 164.195312 221.878906 C 152.335938 226.292969 138.53125 227.519531 126.527344 228.324219 C 125.214844 228.410156 123.910156 228.496094 122.609375 228.582031 C 117.402344 228.914062 112.488281 229.234375 107.582031 229.746094 C 101.214844 230.417969 95.097656 231.464844 89.394531 232.851562 C 66.835938 238.351562 46.851562 249.832031 31.582031 266.054688 C 25.890625 272.113281 20.996094 278.734375 17.027344 285.742188 C 9.910156 298.285156 5.679688 312 4.4375 326.519531 C 2.40625 350.363281 9.144531 374.417969 22.9375 392.523438 L 22.429688 392.90625 C 8.542969 374.679688 1.75 350.464844 3.800781 326.460938 C 5.050781 311.851562 9.3125 298.046875 16.476562 285.425781 C 20.464844 278.371094 25.390625 271.707031 31.117188 265.613281 C 46.460938 249.300781 66.5625 237.757812 89.238281 232.230469 C 94.972656 230.832031 101.117188 229.785156 107.511719 229.113281 C 112.4375 228.601562 117.359375 228.28125 122.566406 227.949219 C 123.867188 227.863281 125.171875 227.78125 126.484375 227.691406 C 138.445312 226.890625 152.1875 225.660156 163.972656 221.285156 C 174.707031 217.332031 182.964844 211.433594 189.222656 203.242188 C 192.148438 199.425781 194.585938 195.023438 196.464844 190.203125 C 201.6875 176.796875 202.382812 161.386719 202.625 148 L 202.703125 143.824219 C 202.964844 129.417969 203.289062 111.480469 209.914062 96.046875 C 210.894531 93.769531 212.011719 91.539062 213.226562 89.4375 C 223.488281 71.742188 241.839844 60.5625 260.148438 51.117188 C 269.847656 46.128906 279.757812 41.394531 289.332031 36.824219 C 299.417969 32.007812 309.855469 27.023438 320.046875 21.730469 C 329.6875 16.71875 338.671875 11.585938 346.75 6.464844 C 358.527344 -1.003906 369.824219 -7.550781 378.511719 -5.667969 L 378.378906 -5.046875 Z M 378.382812 -5.050781 " fill-opacity="1" fill-rule="nonzero"/></g></g></g></g><g clip-path="url(#09490f767d)"><g clip-path="url(#94caa5a092)"><g clip-path="url(#07d7068dc9)"><g clip-path="url(#d370390ee9)"><path fill="#29abe2" d="M 374.589844 -5.054688 C 365.636719 -7.914062 353.652344 -1.039062 343.128906 5.625 C 335.179688 10.660156 326.363281 15.828125 316.925781 20.980469 C 306.953125 26.410156 296.78125 31.632812 286.933594 36.683594 C 277.589844 41.476562 267.933594 46.4375 258.472656 51.558594 C 241.761719 60.632812 223.066406 71.796875 212.6875 89.554688 C 211.496094 91.605469 210.394531 93.761719 209.421875 95.988281 C 202.988281 110.695312 202.1875 127.046875 201.414062 142.867188 L 201.394531 143.285156 C 201.332031 144.527344 201.269531 145.769531 201.207031 147.003906 C 200.492188 161.160156 199.070312 176.015625 193.414062 188.898438 C 191.285156 193.714844 188.636719 198.027344 185.539062 201.722656 C 178.992188 209.539062 170.445312 215.148438 159.414062 218.875 C 148.207031 222.683594 135.921875 223.917969 122.175781 225.035156 L 121.078125 225.125 C 114.972656 225.621094 109.210938 226.082031 103.484375 226.847656 C 97.277344 227.6875 91.25 228.9375 85.554688 230.5625 C 63.730469 236.804688 43.8125 249.472656 29.480469 266.234375 C 24.097656 272.539062 19.523438 279.382812 15.890625 286.558594 C 9.425781 299.316406 5.800781 313.164062 5.117188 327.707031 C 4.015625 351.261719 11.28125 374.945312 25.050781 392.679688 L 24.546875 393.074219 C 10.683594 375.21875 3.371094 351.382812 4.480469 327.671875 C 5.164062 313.035156 8.816406 299.101562 15.324219 286.261719 C 18.976562 279.039062 23.578125 272.160156 28.992188 265.8125 C 43.40625 248.953125 63.429688 236.210938 85.371094 229.945312 C 91.09375 228.308594 97.160156 227.054688 103.394531 226.210938 C 109.140625 225.449219 114.910156 224.980469 121.023438 224.488281 L 122.121094 224.398438 C 135.824219 223.285156 148.070312 222.058594 159.207031 218.269531 C 170.128906 214.582031 178.578125 209.039062 185.042969 201.316406 C 188.101562 197.667969 190.71875 193.414062 192.824219 188.648438 C 198.425781 175.863281 199.851562 161.074219 200.558594 146.980469 C 200.617188 145.742188 200.679688 144.5 200.742188 143.257812 L 200.761719 142.839844 C 201.539062 126.964844 202.347656 110.542969 208.824219 95.734375 C 209.808594 93.496094 210.914062 91.304688 212.125 89.230469 C 222.585938 71.339844 241.371094 60.113281 258.15625 51 C 267.621094 45.875 277.285156 40.910156 286.628906 36.117188 C 296.46875 31.070312 306.640625 25.851562 316.601562 20.417969 C 326.027344 15.273438 334.832031 10.109375 342.773438 5.085938 C 353.417969 -1.660156 365.546875 -8.605469 374.769531 -5.660156 L 374.574219 -5.050781 Z M 374.589844 -5.054688 " fill-opacity="1" fill-rule="nonzero"/></g></g></g></g><g clip-path="url(#84024b6ac3)"><g clip-path="url(#60d0b7c3bf)"><g clip-path="url(#417cc092c3)"><g clip-path="url(#1b3fb62b30)"><path fill="#29abe2" d="M 371.042969 -5.652344 L 370.800781 -5.0625 C 361.824219 -8.800781 350.285156 -2.792969 339.148438 4.25 C 331.21875 9.269531 322.824219 14.308594 313.488281 19.660156 C 303.757812 25.230469 293.839844 30.691406 284.246094 35.972656 C 275.144531 40.988281 265.734375 46.167969 256.5 51.4375 C 239.289062 61.261719 221.648438 72.289062 211.597656 89.34375 C 210.410156 91.351562 209.316406 93.484375 208.339844 95.675781 C 202.046875 109.75 200.785156 125.628906 199.554688 141 L 199.484375 141.894531 C 199.375 143.261719 199.261719 144.628906 199.148438 145.992188 C 198.042969 159.269531 196.058594 174.574219 189.773438 187.359375 C 187.445312 192.066406 184.613281 196.25 181.355469 199.800781 C 174.617188 207.152344 165.878906 212.402344 154.644531 215.851562 C 143.53125 219.28125 131.09375 220.464844 119.070312 221.605469 L 117.84375 221.722656 C 111.542969 222.320312 105.394531 222.941406 99.402344 223.925781 C 93.34375 224.925781 87.398438 226.375 81.734375 228.25 C 60.296875 235.304688 41.003906 248.855469 27.402344 266.394531 C 22.324219 272.945312 18.078125 280 14.78125 287.347656 C 8.949219 300.320312 5.933594 314.296875 5.820312 328.878906 C 5.636719 352.464844 13.226562 375.175781 27.191406 392.828125 L 26.691406 393.222656 C 12.636719 375.449219 4.996094 352.59375 5.183594 328.871094 C 5.296875 314.199219 8.328125 300.136719 14.199219 287.085938 C 17.515625 279.691406 21.789062 272.601562 26.898438 266.007812 C 40.578125 248.363281 59.984375 234.742188 81.535156 227.644531 C 87.238281 225.765625 93.207031 224.304688 99.304688 223.296875 C 105.308594 222.3125 111.472656 221.691406 117.785156 221.09375 L 119.019531 220.980469 C 131.015625 219.839844 143.414062 218.660156 154.464844 215.246094 C 165.589844 211.835938 174.230469 206.644531 180.894531 199.378906 C 184.117188 195.871094 186.910156 191.738281 189.210938 187.085938 C 195.457031 174.394531 197.421875 159.167969 198.527344 145.949219 C 198.640625 144.585938 198.75 143.226562 198.859375 141.851562 L 198.929688 140.957031 C 200.164062 125.53125 201.4375 109.59375 207.765625 95.425781 C 208.75 93.210938 209.863281 91.0625 211.054688 89.03125 C 221.183594 71.84375 238.90625 60.769531 256.191406 50.898438 C 265.433594 45.628906 274.84375 40.445312 283.945312 35.429688 C 293.539062 30.144531 303.457031 24.6875 313.179688 19.121094 C 322.507812 13.773438 330.894531 8.738281 338.816406 3.71875 C 350.09375 -3.417969 361.804688 -9.492188 371.046875 -5.640625 Z M 371.042969 -5.652344 " fill-opacity="1" fill-rule="nonzero"/></g></g></g></g><g clip-path="url(#3961dbd2c7)"><g clip-path="url(#316168133c)"><g clip-path="url(#619f7f3a99)"><g clip-path="url(#1de0220075)"><path fill="#29abe2" d="M 367.292969 -5.640625 L 367.003906 -5.070312 C 357.585938 -9.851562 345.628906 -3.738281 335.175781 2.871094 C 327.394531 7.789062 319.175781 12.851562 310.050781 18.34375 C 300.5625 24.050781 290.902344 29.75 281.5625 35.261719 C 272.691406 40.496094 263.527344 45.90625 254.519531 51.3125 C 236.863281 61.917969 220.207031 72.792969 210.488281 89.136719 C 209.320312 91.109375 208.222656 93.203125 207.238281 95.359375 C 201.109375 108.796875 199.417969 124.046875 197.777344 138.785156 L 197.542969 140.914062 C 197.390625 142.273438 197.234375 143.628906 197.078125 144.976562 C 195.546875 158.078125 193.042969 173.171875 186.113281 185.8125 C 183.589844 190.40625 180.570312 194.464844 177.148438 197.878906 C 170.238281 204.769531 161.304688 209.660156 149.847656 212.824219 C 139.839844 215.601562 128.828125 216.769531 118.179688 217.90625 C 116.609375 218.070312 115.042969 218.242188 113.476562 218.410156 C 107.632812 219.054688 101.386719 219.804688 95.289062 221 C 89.367188 222.160156 83.507812 223.816406 77.875 225.929688 C 56.816406 233.808594 38.136719 248.234375 25.285156 266.550781 C 20.515625 273.347656 16.59375 280.609375 13.628906 288.132812 C 8.429688 301.320312 6.023438 315.421875 6.488281 330.039062 C 7.214844 353.285156 15.3125 375.632812 29.289062 392.96875 L 28.792969 393.371094 C 14.730469 375.925781 6.578125 353.445312 5.84375 330.058594 C 5.382812 315.351562 7.800781 301.167969 13.03125 287.894531 C 16.019531 280.324219 19.960938 273.023438 24.757812 266.183594 C 37.691406 247.761719 56.472656 233.253906 77.652344 225.328125 C 83.316406 223.207031 89.207031 221.539062 95.171875 220.371094 C 101.289062 219.171875 107.550781 218.414062 113.40625 217.773438 C 114.972656 217.605469 116.539062 217.4375 118.109375 217.269531 C 128.730469 216.136719 139.71875 214.972656 149.679688 212.210938 C 161.027344 209.078125 169.867188 204.242188 176.699219 197.425781 C 180.078125 194.054688 183.058594 190.042969 185.554688 185.507812 C 192.433594 172.964844 194.921875 157.9375 196.445312 144.902344 C 196.609375 143.554688 196.757812 142.199219 196.910156 140.84375 L 197.144531 138.710938 C 198.785156 123.917969 200.496094 108.613281 206.664062 95.089844 C 207.65625 92.90625 208.757812 90.796875 209.945312 88.804688 C 219.738281 72.332031 236.460938 61.410156 254.1875 50.753906 C 263.195312 45.347656 272.371094 39.9375 281.238281 34.703125 C 290.578125 29.191406 300.238281 23.488281 309.71875 17.789062 C 318.84375 12.300781 327.0625 7.238281 334.832031 2.324219 C 345.4375 -4.382812 357.59375 -10.574219 367.292969 -5.648438 Z M 367.292969 -5.640625 " fill-opacity="1" fill-rule="nonzero"/></g></g></g></g><g clip-path="url(#438e73d231)"><g clip-path="url(#6d536b663b)"><g clip-path="url(#2c5bef257f)"><g clip-path="url(#c7ac98e237)"><path fill="#29abe2" d="M 363.554688 -5.628906 L 363.222656 -5.082031 C 353.355469 -10.945312 340.929688 -4.652344 331.203125 1.492188 L 252.542969 51.183594 C 237.0625 60.960938 219.515625 72.046875 209.398438 88.921875 C 200.863281 103.15625 198.441406 120.144531 196.09375 136.570312 C 195.738281 139.042969 195.386719 141.511719 195.019531 143.964844 C 192.25 162.257812 187.464844 182.730469 172.957031 195.964844 C 158.136719 209.480469 137.40625 211.84375 117.355469 214.136719 C 108.648438 215.128906 99.640625 216.160156 91.203125 218.078125 C 55.296875 226.273438 24.40625 254.082031 12.5 288.917969 C 0.605469 323.757812 8.023438 364.65625 31.417969 393.113281 L 30.925781 393.519531 C 7.398438 364.894531 -0.0664062 323.761719 11.902344 288.714844 C 23.863281 253.671875 54.945312 225.703125 91.066406 217.457031 C 99.535156 215.523438 108.5625 214.496094 117.289062 213.5 C 137.238281 211.222656 157.867188 208.867188 172.53125 195.492188 C 186.882812 182.398438 191.640625 162.046875 194.390625 143.871094 C 194.761719 141.417969 195.113281 138.960938 195.46875 136.488281 C 197.820312 119.996094 200.253906 102.941406 208.855469 88.597656 C 219.054688 71.589844 236.667969 60.460938 252.207031 50.644531 L 330.867188 0.953125 C 340.742188 -5.285156 353.382812 -11.671875 363.554688 -5.628906 Z M 363.554688 -5.628906 " fill-opacity="1" fill-rule="nonzero"/></g></g></g></g></svg>