<svg xmlns="http://www.w3.org/2000/svg" xmlns:xlink="http://www.w3.org/1999/xlink" width="1024" zoomAndPan="magnify" viewBox="0 0 768 576" height="768" preserveAspectRatio="xMidYMid meet" version="1.0"><defs><clipPath id="db3170118d"><path d="M 0 45 L 768 45 L 768 557 L 0 557 Z M 0 45 " clip-rule="nonzero"/></clipPath><clipPath id="85f813af59"><path d="M -46.863281 530.054688 L 393.875 -202.59375 L 810.96875 48.316406 L 370.230469 780.964844 Z M -46.863281 530.054688 " clip-rule="nonzero"/></clipPath><clipPath id="c85b8340ad"><path d="M -46.863281 530.054688 L 393.875 -202.59375 L 810.96875 48.316406 L 370.230469 780.964844 Z M -46.863281 530.054688 " clip-rule="nonzero"/></clipPath><clipPath id="50684aa9ee"><path d="M -46.863281 530.054688 L 393.875 -202.59375 L 810.96875 48.316406 L 370.230469 780.964844 Z M -46.863281 530.054688 " clip-rule="nonzero"/></clipPath><clipPath id="920168d2cb"><path d="M 0 44 L 768 44 L 768 558 L 0 558 Z M 0 44 " clip-rule="nonzero"/></clipPath><clipPath id="6db86d20fe"><path d="M -46.863281 530.054688 L 393.875 -202.59375 L 810.96875 48.316406 L 370.230469 780.964844 Z M -46.863281 530.054688 " clip-rule="nonzero"/></clipPath><clipPath id="c208991b82"><path d="M -46.863281 530.054688 L 393.875 -202.59375 L 810.96875 48.316406 L 370.230469 780.964844 Z M -46.863281 530.054688 " clip-rule="nonzero"/></clipPath><clipPath id="c541d84b88"><path d="M -46.863281 530.054688 L 393.875 -202.59375 L 810.96875 48.316406 L 370.230469 780.964844 Z M -46.863281 530.054688 " clip-rule="nonzero"/></clipPath><clipPath id="b5f5e9c77d"><path d="M 0 43 L 768 43 L 768 558 L 0 558 Z M 0 43 " clip-rule="nonzero"/></clipPath><clipPath id="95be282b45"><path d="M -46.863281 530.054688 L 393.875 -202.59375 L 810.96875 48.316406 L 370.230469 780.964844 Z M -46.863281 530.054688 " clip-rule="nonzero"/></clipPath><clipPath id="b34d3e232d"><path d="M -46.863281 530.054688 L 393.875 -202.59375 L 810.96875 48.316406 L 370.230469 780.964844 Z M -46.863281 530.054688 " clip-rule="nonzero"/></clipPath><clipPath id="63dc80bdb6"><path d="M -46.863281 530.054688 L 393.875 -202.59375 L 810.96875 48.316406 L 370.230469 780.964844 Z M -46.863281 530.054688 " clip-rule="nonzero"/></clipPath><clipPath id="ff511805e0"><path d="M 0 43 L 768 43 L 768 559 L 0 559 Z M 0 43 " clip-rule="nonzero"/></clipPath><clipPath id="0ec60a6bf1"><path d="M -46.863281 530.054688 L 393.875 -202.59375 L 810.96875 48.316406 L 370.230469 780.964844 Z M -46.863281 530.054688 " clip-rule="nonzero"/></clipPath><clipPath id="70a678608e"><path d="M -46.863281 530.054688 L 393.875 -202.59375 L 810.96875 48.316406 L 370.230469 780.964844 Z M -46.863281 530.054688 " clip-rule="nonzero"/></clipPath><clipPath id="3b0e6b9a18"><path d="M -46.863281 530.054688 L 393.875 -202.59375 L 810.96875 48.316406 L 370.230469 780.964844 Z M -46.863281 530.054688 " clip-rule="nonzero"/></clipPath><clipPath id="649ef3f835"><path d="M 2 42 L 768 42 L 768 560 L 2 560 Z M 2 42 " clip-rule="nonzero"/></clipPath><clipPath id="40cacd5964"><path d="M -46.863281 530.054688 L 393.875 -202.59375 L 810.96875 48.316406 L 370.230469 780.964844 Z M -46.863281 530.054688 " clip-rule="nonzero"/></clipPath><clipPath id="bd82c37437"><path d="M -46.863281 530.054688 L 393.875 -202.59375 L 810.96875 48.316406 L 370.230469 780.964844 Z M -46.863281 530.054688 " clip-rule="nonzero"/></clipPath><clipPath id="547a484aa4"><path d="M -46.863281 530.054688 L 393.875 -202.59375 L 810.96875 48.316406 L 370.230469 780.964844 Z M -46.863281 530.054688 " clip-rule="nonzero"/></clipPath><clipPath id="eb0933e688"><path d="M 5 41 L 768 41 L 768 561 L 5 561 Z M 5 41 " clip-rule="nonzero"/></clipPath><clipPath id="04fe8bed72"><path d="M -46.863281 530.054688 L 393.875 -202.59375 L 810.96875 48.316406 L 370.230469 780.964844 Z M -46.863281 530.054688 " clip-rule="nonzero"/></clipPath><clipPath id="ea1e021e3c"><path d="M -46.863281 530.054688 L 393.875 -202.59375 L 810.96875 48.316406 L 370.230469 780.964844 Z M -46.863281 530.054688 " clip-rule="nonzero"/></clipPath><clipPath id="cd9d842e81"><path d="M -46.863281 530.054688 L 393.875 -202.59375 L 810.96875 48.316406 L 370.230469 780.964844 Z M -46.863281 530.054688 " clip-rule="nonzero"/></clipPath><clipPath id="4c607af66f"><path d="M 7 40 L 768 40 L 768 561 L 7 561 Z M 7 40 " clip-rule="nonzero"/></clipPath><clipPath id="bcaecf169c"><path d="M -46.863281 530.054688 L 393.875 -202.59375 L 810.96875 48.316406 L 370.230469 780.964844 Z M -46.863281 530.054688 " clip-rule="nonzero"/></clipPath><clipPath id="03f5101757"><path d="M -46.863281 530.054688 L 393.875 -202.59375 L 810.96875 48.316406 L 370.230469 780.964844 Z M -46.863281 530.054688 " clip-rule="nonzero"/></clipPath><clipPath id="76577a5ef2"><path d="M -46.863281 530.054688 L 393.875 -202.59375 L 810.96875 48.316406 L 370.230469 780.964844 Z M -46.863281 530.054688 " clip-rule="nonzero"/></clipPath><clipPath id="b0f388372b"><path d="M 10 39 L 766 39 L 766 562 L 10 562 Z M 10 39 " clip-rule="nonzero"/></clipPath><clipPath id="b7018bd3cf"><path d="M -46.863281 530.054688 L 393.875 -202.59375 L 810.96875 48.316406 L 370.230469 780.964844 Z M -46.863281 530.054688 " clip-rule="nonzero"/></clipPath><clipPath id="c28c6b5c58"><path d="M -46.863281 530.054688 L 393.875 -202.59375 L 810.96875 48.316406 L 370.230469 780.964844 Z M -46.863281 530.054688 " clip-rule="nonzero"/></clipPath><clipPath id="653e9a557f"><path d="M -46.863281 530.054688 L 393.875 -202.59375 L 810.96875 48.316406 L 370.230469 780.964844 Z M -46.863281 530.054688 " clip-rule="nonzero"/></clipPath><clipPath id="69bb1f1f9b"><path d="M 13 38 L 760 38 L 760 563 L 13 563 Z M 13 38 " clip-rule="nonzero"/></clipPath><clipPath id="5cc00a202b"><path d="M -46.863281 530.054688 L 393.875 -202.59375 L 810.96875 48.316406 L 370.230469 780.964844 Z M -46.863281 530.054688 " clip-rule="nonzero"/></clipPath><clipPath id="04e1f9170e"><path d="M -46.863281 530.054688 L 393.875 -202.59375 L 810.96875 48.316406 L 370.230469 780.964844 Z M -46.863281 530.054688 " clip-rule="nonzero"/></clipPath><clipPath id="bb5fc3f4fb"><path d="M -46.863281 530.054688 L 393.875 -202.59375 L 810.96875 48.316406 L 370.230469 780.964844 Z M -46.863281 530.054688 " clip-rule="nonzero"/></clipPath><clipPath id="5587a65ecf"><path d="M 16 37 L 754 37 L 754 564 L 16 564 Z M 16 37 " clip-rule="nonzero"/></clipPath><clipPath id="96bcc909bd"><path d="M -46.863281 530.054688 L 393.875 -202.59375 L 810.96875 48.316406 L 370.230469 780.964844 Z M -46.863281 530.054688 " clip-rule="nonzero"/></clipPath><clipPath id="e003df5684"><path d="M -46.863281 530.054688 L 393.875 -202.59375 L 810.96875 48.316406 L 370.230469 780.964844 Z M -46.863281 530.054688 " clip-rule="nonzero"/></clipPath><clipPath id="7e33db5398"><path d="M -46.863281 530.054688 L 393.875 -202.59375 L 810.96875 48.316406 L 370.230469 780.964844 Z M -46.863281 530.054688 " clip-rule="nonzero"/></clipPath><clipPath id="cfcb495528"><path d="M 19 36 L 748 36 L 748 564 L 19 564 Z M 19 36 " clip-rule="nonzero"/></clipPath><clipPath id="79b3523d5b"><path d="M -46.863281 530.054688 L 393.875 -202.59375 L 810.96875 48.316406 L 370.230469 780.964844 Z M -46.863281 530.054688 " clip-rule="nonzero"/></clipPath><clipPath id="4796bb5201"><path d="M -46.863281 530.054688 L 393.875 -202.59375 L 810.96875 48.316406 L 370.230469 780.964844 Z M -46.863281 530.054688 " clip-rule="nonzero"/></clipPath><clipPath id="2c28e99f24"><path d="M -46.863281 530.054688 L 393.875 -202.59375 L 810.96875 48.316406 L 370.230469 780.964844 Z M -46.863281 530.054688 " clip-rule="nonzero"/></clipPath><clipPath id="968420a7e1"><path d="M 21 35 L 742 35 L 742 565 L 21 565 Z M 21 35 " clip-rule="nonzero"/></clipPath><clipPath id="7c7be1c89f"><path d="M -46.863281 530.054688 L 393.875 -202.59375 L 810.96875 48.316406 L 370.230469 780.964844 Z M -46.863281 530.054688 " clip-rule="nonzero"/></clipPath><clipPath id="25f9e69eee"><path d="M -46.863281 530.054688 L 393.875 -202.59375 L 810.96875 48.316406 L 370.230469 780.964844 Z M -46.863281 530.054688 " clip-rule="nonzero"/></clipPath><clipPath id="52fb6d4e44"><path d="M -46.863281 530.054688 L 393.875 -202.59375 L 810.96875 48.316406 L 370.230469 780.964844 Z M -46.863281 530.054688 " clip-rule="nonzero"/></clipPath><clipPath id="c61007ab2d"><path d="M 24 34 L 736 34 L 736 566 L 24 566 Z M 24 34 " clip-rule="nonzero"/></clipPath><clipPath id="522886cd5e"><path d="M -46.863281 530.054688 L 393.875 -202.59375 L 810.96875 48.316406 L 370.230469 780.964844 Z M -46.863281 530.054688 " clip-rule="nonzero"/></clipPath><clipPath id="eac9d690f9"><path d="M -46.863281 530.054688 L 393.875 -202.59375 L 810.96875 48.316406 L 370.230469 780.964844 Z M -46.863281 530.054688 " clip-rule="nonzero"/></clipPath><clipPath id="3da8692cd0"><path d="M -46.863281 530.054688 L 393.875 -202.59375 L 810.96875 48.316406 L 370.230469 780.964844 Z M -46.863281 530.054688 " clip-rule="nonzero"/></clipPath><clipPath id="c861dd4eff"><path d="M 26 33 L 730 33 L 730 567 L 26 567 Z M 26 33 " clip-rule="nonzero"/></clipPath><clipPath id="7bb9d1cd6e"><path d="M -46.863281 530.054688 L 393.875 -202.59375 L 810.96875 48.316406 L 370.230469 780.964844 Z M -46.863281 530.054688 " clip-rule="nonzero"/></clipPath><clipPath id="55b853aefd"><path d="M -46.863281 530.054688 L 393.875 -202.59375 L 810.96875 48.316406 L 370.230469 780.964844 Z M -46.863281 530.054688 " clip-rule="nonzero"/></clipPath><clipPath id="27550c3354"><path d="M -46.863281 530.054688 L 393.875 -202.59375 L 810.96875 48.316406 L 370.230469 780.964844 Z M -46.863281 530.054688 " clip-rule="nonzero"/></clipPath><clipPath id="7e7b92ad6a"><path d="M 29 32 L 724 32 L 724 567 L 29 567 Z M 29 32 " clip-rule="nonzero"/></clipPath><clipPath id="5adc981bc3"><path d="M -46.863281 530.054688 L 393.875 -202.59375 L 810.96875 48.316406 L 370.230469 780.964844 Z M -46.863281 530.054688 " clip-rule="nonzero"/></clipPath><clipPath id="75555af60d"><path d="M -46.863281 530.054688 L 393.875 -202.59375 L 810.96875 48.316406 L 370.230469 780.964844 Z M -46.863281 530.054688 " clip-rule="nonzero"/></clipPath><clipPath id="83798c21e3"><path d="M -46.863281 530.054688 L 393.875 -202.59375 L 810.96875 48.316406 L 370.230469 780.964844 Z M -46.863281 530.054688 " clip-rule="nonzero"/></clipPath><clipPath id="6d7d753c90"><path d="M 31 31 L 718 31 L 718 568 L 31 568 Z M 31 31 " clip-rule="nonzero"/></clipPath><clipPath id="947168df75"><path d="M -46.863281 530.054688 L 393.875 -202.59375 L 810.96875 48.316406 L 370.230469 780.964844 Z M -46.863281 530.054688 " clip-rule="nonzero"/></clipPath><clipPath id="ef41d0b8d7"><path d="M -46.863281 530.054688 L 393.875 -202.59375 L 810.96875 48.316406 L 370.230469 780.964844 Z M -46.863281 530.054688 " clip-rule="nonzero"/></clipPath><clipPath id="bc22841619"><path d="M -46.863281 530.054688 L 393.875 -202.59375 L 810.96875 48.316406 L 370.230469 780.964844 Z M -46.863281 530.054688 " clip-rule="nonzero"/></clipPath><clipPath id="b33e5a6932"><path d="M 33 30 L 713 30 L 713 569 L 33 569 Z M 33 30 " clip-rule="nonzero"/></clipPath><clipPath id="fbb8cc53f2"><path d="M -46.863281 530.054688 L 393.875 -202.59375 L 810.96875 48.316406 L 370.230469 780.964844 Z M -46.863281 530.054688 " clip-rule="nonzero"/></clipPath><clipPath id="f264678177"><path d="M -46.863281 530.054688 L 393.875 -202.59375 L 810.96875 48.316406 L 370.230469 780.964844 Z M -46.863281 530.054688 " clip-rule="nonzero"/></clipPath><clipPath id="40a801fab8"><path d="M -46.863281 530.054688 L 393.875 -202.59375 L 810.96875 48.316406 L 370.230469 780.964844 Z M -46.863281 530.054688 " clip-rule="nonzero"/></clipPath><clipPath id="8f834403e3"><path d="M 36 28 L 707 28 L 707 570 L 36 570 Z M 36 28 " clip-rule="nonzero"/></clipPath><clipPath id="4b2f5f0c01"><path d="M -46.863281 530.054688 L 393.875 -202.59375 L 810.96875 48.316406 L 370.230469 780.964844 Z M -46.863281 530.054688 " clip-rule="nonzero"/></clipPath><clipPath id="d69408b871"><path d="M -46.863281 530.054688 L 393.875 -202.59375 L 810.96875 48.316406 L 370.230469 780.964844 Z M -46.863281 530.054688 " clip-rule="nonzero"/></clipPath><clipPath id="1ab27f531e"><path d="M -46.863281 530.054688 L 393.875 -202.59375 L 810.96875 48.316406 L 370.230469 780.964844 Z M -46.863281 530.054688 " clip-rule="nonzero"/></clipPath><clipPath id="99a0107181"><path d="M 38 26 L 701 26 L 701 570 L 38 570 Z M 38 26 " clip-rule="nonzero"/></clipPath><clipPath id="bf3659007b"><path d="M -46.863281 530.054688 L 393.875 -202.59375 L 810.96875 48.316406 L 370.230469 780.964844 Z M -46.863281 530.054688 " clip-rule="nonzero"/></clipPath><clipPath id="ef841ee158"><path d="M -46.863281 530.054688 L 393.875 -202.59375 L 810.96875 48.316406 L 370.230469 780.964844 Z M -46.863281 530.054688 " clip-rule="nonzero"/></clipPath><clipPath id="0627ce4e07"><path d="M -46.863281 530.054688 L 393.875 -202.59375 L 810.96875 48.316406 L 370.230469 780.964844 Z M -46.863281 530.054688 " clip-rule="nonzero"/></clipPath><clipPath id="982ffc0afd"><path d="M 39 24 L 695 24 L 695 571 L 39 571 Z M 39 24 " clip-rule="nonzero"/></clipPath><clipPath id="13a6ddf5a5"><path d="M -46.863281 530.054688 L 393.875 -202.59375 L 810.96875 48.316406 L 370.230469 780.964844 Z M -46.863281 530.054688 " clip-rule="nonzero"/></clipPath><clipPath id="8ec78efb6d"><path d="M -46.863281 530.054688 L 393.875 -202.59375 L 810.96875 48.316406 L 370.230469 780.964844 Z M -46.863281 530.054688 " clip-rule="nonzero"/></clipPath><clipPath id="dfb9968edf"><path d="M -46.863281 530.054688 L 393.875 -202.59375 L 810.96875 48.316406 L 370.230469 780.964844 Z M -46.863281 530.054688 " clip-rule="nonzero"/></clipPath><clipPath id="4a2da084b6"><path d="M 41 22 L 689 22 L 689 572 L 41 572 Z M 41 22 " clip-rule="nonzero"/></clipPath><clipPath id="c6d147f0db"><path d="M -46.863281 530.054688 L 393.875 -202.59375 L 810.96875 48.316406 L 370.230469 780.964844 Z M -46.863281 530.054688 " clip-rule="nonzero"/></clipPath><clipPath id="4d781922c9"><path d="M -46.863281 530.054688 L 393.875 -202.59375 L 810.96875 48.316406 L 370.230469 780.964844 Z M -46.863281 530.054688 " clip-rule="nonzero"/></clipPath><clipPath id="d2b63db4a0"><path d="M -46.863281 530.054688 L 393.875 -202.59375 L 810.96875 48.316406 L 370.230469 780.964844 Z M -46.863281 530.054688 " clip-rule="nonzero"/></clipPath><clipPath id="5688193017"><path d="M 42 20 L 683 20 L 683 573 L 42 573 Z M 42 20 " clip-rule="nonzero"/></clipPath><clipPath id="c954e444b3"><path d="M -46.863281 530.054688 L 393.875 -202.59375 L 810.96875 48.316406 L 370.230469 780.964844 Z M -46.863281 530.054688 " clip-rule="nonzero"/></clipPath><clipPath id="441f86e186"><path d="M -46.863281 530.054688 L 393.875 -202.59375 L 810.96875 48.316406 L 370.230469 780.964844 Z M -46.863281 530.054688 " clip-rule="nonzero"/></clipPath><clipPath id="6240541e0d"><path d="M -46.863281 530.054688 L 393.875 -202.59375 L 810.96875 48.316406 L 370.230469 780.964844 Z M -46.863281 530.054688 " clip-rule="nonzero"/></clipPath></defs><rect x="-76.8" width="921.6" fill="#ffffff" y="-57.6" height="691.2" fill-opacity="1"/><rect x="-76.8" width="921.6" fill="#ffffff" y="-57.6" height="691.2" fill-opacity="1"/><rect x="-76.8" width="921.6" fill="#ffffff" y="-57.6" height="691.2" fill-opacity="1"/><g clip-path="url(#db3170118d)"><g clip-path="url(#85f813af59)"><g clip-path="url(#c85b8340ad)"><g clip-path="url(#50684aa9ee)"><path fill="#29abe2" d="M 801.863281 55.425781 C 779.988281 91.792969 733.105469 107.101562 694.484375 109.148438 C 671.425781 110.371094 648.011719 108.261719 625.378906 106.234375 C 603.886719 104.304688 581.671875 102.300781 559.808594 103.164062 C 506.207031 105.265625 463.851562 127.476562 446.535156 162.546875 C 434.699219 186.511719 433.796875 217.175781 443.78125 256.269531 C 446.144531 265.535156 448.921875 274.882812 451.621094 283.925781 C 457.960938 305.210938 464.5 327.234375 466.105469 349.710938 C 468.171875 378.707031 460.117188 416.335938 431.328125 435.015625 C 412.570312 447.1875 385.945312 449.75 358.292969 442.042969 C 339.609375 436.832031 321.992188 427.894531 304.953125 419.246094 C 299.921875 416.6875 294.710938 414.050781 289.5625 411.542969 C 241.679688 388.273438 196.351562 376.582031 154.839844 376.773438 C 104.546875 377.015625 58.292969 395.292969 27.945312 426.902344 C -6.15625 462.425781 -17.863281 514.355469 -1.1875 556.109375 L -2.121094 556.488281 C -10.519531 535.46875 -11.929688 511.671875 -6.210938 487.675781 C -0.761719 464.835938 11.105469 443.007812 27.214844 426.21875 C 57.757812 394.402344 104.261719 376.019531 154.828125 375.777344 C 196.496094 375.574219 241.96875 387.304688 289.996094 410.648438 C 295.15625 413.152344 300.359375 415.800781 305.402344 418.347656 C 322.394531 426.972656 339.964844 435.890625 358.550781 441.066406 C 385.933594 448.695312 412.253906 446.183594 430.769531 434.160156 C 459.191406 415.722656 467.128906 378.480469 465.089844 349.773438 C 463.496094 327.394531 456.964844 305.4375 450.644531 284.195312 C 447.949219 275.144531 445.171875 265.785156 442.800781 256.503906 C 432.757812 217.175781 433.6875 186.292969 445.636719 162.085938 C 454.992188 143.144531 471.039062 128.160156 493.339844 117.566406 C 512.574219 108.425781 535.550781 103.089844 559.773438 102.140625 C 581.707031 101.285156 603.957031 103.285156 625.472656 105.21875 C 648.078125 107.253906 671.449219 109.351562 694.4375 108.128906 C 735.867188 105.933594 786.863281 88.390625 805.734375 45.800781 L 806.652344 46.214844 C 805.230469 49.421875 803.632812 52.488281 801.875 55.410156 Z M 801.863281 55.425781 " fill-opacity="1" fill-rule="nonzero"/></g></g></g></g><g clip-path="url(#920168d2cb)"><g clip-path="url(#6db86d20fe)"><g clip-path="url(#c208991b82)"><g clip-path="url(#c541d84b88)"><path fill="#29abe2" d="M 797.390625 51.523438 C 787.21875 68.433594 770.355469 82.441406 748.214844 92.285156 C 730.746094 100.054688 710.417969 104.886719 689.421875 106.28125 C 666.703125 107.78125 643.644531 106.105469 621.335938 104.496094 C 600.171875 102.960938 578.28125 101.382812 556.734375 102.515625 C 510.496094 104.949219 472.414062 122.15625 452.265625 149.734375 C 449.480469 153.542969 447 157.609375 444.90625 161.8125 C 433.164062 185.308594 431.882812 215.554688 440.988281 254.292969 C 441.589844 256.859375 442.226562 259.480469 442.953125 262.304688 C 444.511719 268.449219 446.222656 274.671875 447.867188 280.6875 C 453.703125 302.027344 459.738281 324.085938 460.769531 346.441406 C 461.238281 356.839844 460.402344 367.0625 458.292969 376.851562 C 454.742188 393.332031 446.007812 415.785156 424.570312 429.171875 C 399.15625 445.0625 368.359375 440.171875 352.265625 435.847656 C 341.851562 433.046875 331.097656 429.015625 317.394531 422.773438 C 311.714844 420.191406 305.992188 417.445312 300.453125 414.785156 C 295.097656 412.210938 289.558594 409.550781 284.078125 407.050781 C 236.878906 385.5 192.265625 375.242188 151.492188 376.582031 C 134.605469 377.140625 118.011719 379.792969 102.203125 384.472656 C 72.832031 393.15625 47.429688 408.539062 28.722656 428.960938 C -3.847656 464.519531 -14.550781 515.933594 2.074219 556.894531 L 1.140625 557.273438 C -15.640625 515.960938 -4.859375 464.125 27.96875 428.273438 C 46.789062 407.71875 72.359375 392.238281 101.914062 383.507812 C 117.8125 378.8125 134.480469 376.136719 151.457031 375.585938 C 192.394531 374.25 237.152344 384.523438 284.492188 406.148438 C 289.976562 408.660156 295.523438 411.3125 300.886719 413.890625 C 306.414062 416.546875 312.128906 419.289062 317.804688 421.875 C 331.449219 428.097656 342.15625 432.113281 352.515625 434.90625 C 368.445312 439.1875 398.921875 444.039062 424.019531 428.347656 C 445.15625 415.144531 453.773438 392.964844 457.285156 376.671875 C 459.378906 366.964844 460.207031 356.832031 459.742188 346.519531 C 458.71875 324.273438 452.707031 302.273438 446.882812 280.992188 C 445.238281 274.972656 443.53125 268.742188 441.964844 262.59375 C 441.246094 259.757812 440.597656 257.132812 439.996094 254.570312 C 430.84375 215.597656 432.15625 185.125 443.996094 161.40625 C 446.113281 157.160156 448.621094 153.050781 451.441406 149.1875 C 471.765625 121.371094 510.128906 104.011719 556.675781 101.558594 C 578.277344 100.425781 600.199219 102.015625 621.398438 103.546875 C 643.671875 105.15625 666.695312 106.820312 689.34375 105.335938 C 710.222656 103.957031 730.433594 99.144531 747.789062 91.425781 C 772.34375 80.507812 790.347656 64.441406 799.820312 44.976562 L 800.734375 45.421875 C 799.710938 47.511719 798.597656 49.574219 797.386719 51.589844 Z M 797.390625 51.523438 " fill-opacity="1" fill-rule="nonzero"/></g></g></g></g><g clip-path="url(#b5f5e9c77d)"><g clip-path="url(#95be282b45)"><g clip-path="url(#b34d3e232d)"><g clip-path="url(#63dc80bdb6)"><path fill="#29abe2" d="M 793.097656 47.515625 C 782.964844 64.359375 765.082031 79.070312 742.316406 89.183594 C 725.085938 96.835938 705.042969 101.757812 684.359375 103.398438 C 661.988281 105.164062 639.273438 103.933594 617.300781 102.742188 C 596.449219 101.609375 574.890625 100.4375 553.675781 101.839844 C 508.015625 104.882812 470.453125 122.121094 450.601562 149.132812 C 447.832031 152.894531 445.375 156.902344 443.28125 161.046875 C 431.476562 184.386719 429.871094 213.375 438.191406 252.28125 C 438.722656 254.769531 439.308594 257.359375 439.964844 260.203125 C 441.296875 265.914062 442.742188 271.71875 444.140625 277.328125 C 449.472656 298.738281 454.996094 320.890625 455.429688 343.136719 C 455.613281 353.347656 454.527344 363.339844 452.195312 372.832031 C 448.292969 388.78125 439.15625 410.488281 417.804688 423.289062 C 392.652344 438.40625 362.167969 433.742188 346.234375 429.621094 C 333.121094 426.21875 320.878906 421.207031 311.667969 417.210938 C 306.453125 414.953125 301.195312 412.570312 296.109375 410.273438 C 290.390625 407.683594 284.464844 405 278.613281 402.503906 C 232.109375 382.644531 188.226562 373.835938 148.160156 376.324219 C 131.671875 377.355469 115.542969 380.414062 100.242188 385.425781 C 71.828125 394.707031 47.375 410.449219 29.519531 430.921875 C -1.515625 466.515625 -11.226562 517.417969 5.367188 557.589844 L 4.429688 557.96875 C -12.296875 517.457031 -2.53125 466.128906 28.757812 430.253906 C 46.730469 409.636719 71.347656 393.804688 99.929688 384.457031 C 115.316406 379.421875 131.53125 376.339844 148.101562 375.308594 C 188.316406 372.804688 232.359375 381.640625 279.011719 401.566406 C 284.871094 404.066406 290.796875 406.75 296.527344 409.347656 C 301.609375 411.652344 306.859375 414.023438 312.0625 416.28125 C 321.238281 420.257812 333.441406 425.253906 346.476562 428.632812 C 362.253906 432.71875 392.441406 437.351562 417.269531 422.414062 C 438.316406 409.792969 447.339844 388.347656 451.195312 372.582031 C 453.5 363.183594 454.582031 353.28125 454.398438 343.152344 C 453.964844 321.011719 448.464844 298.921875 443.140625 277.5625 C 441.742188 271.953125 440.296875 266.148438 438.960938 260.421875 C 438.296875 257.574219 437.714844 254.976562 437.183594 252.488281 C 428.8125 213.339844 430.453125 184.136719 442.355469 160.585938 C 444.476562 156.398438 446.964844 152.335938 449.761719 148.53125 C 469.789062 121.273438 507.625 103.882812 553.578125 100.828125 C 574.851562 99.425781 596.449219 100.59375 617.335938 101.726562 C 639.273438 102.914062 661.953125 104.144531 684.261719 102.386719 C 704.835938 100.75 724.761719 95.863281 741.894531 88.257812 C 765.820312 77.628906 784.304688 61.878906 793.933594 43.992188 L 794.824219 44.46875 C 794.28125 45.496094 793.691406 46.507812 793.089844 47.511719 Z M 793.097656 47.515625 " fill-opacity="1" fill-rule="nonzero"/></g></g></g></g><g clip-path="url(#ff511805e0)"><g clip-path="url(#0ec60a6bf1)"><g clip-path="url(#70a678608e)"><g clip-path="url(#3b0e6b9a18)"><path fill="#29abe2" d="M 788.851562 43.726562 C 778.757812 60.507812 760.144531 75.546875 736.433594 86.082031 C 719.441406 93.628906 699.6875 98.617188 679.304688 100.523438 C 657.273438 102.566406 634.898438 101.765625 613.273438 101 C 592.742188 100.273438 571.507812 99.519531 550.617188 101.191406 C 505.546875 104.832031 468.476562 122.097656 448.945312 148.558594 C 446.207031 152.269531 443.757812 156.222656 441.664062 160.308594 C 429.972656 183.152344 427.984375 211.757812 435.410156 250.304688 C 435.886719 252.746094 436.398438 255.300781 436.992188 258.132812 C 438.109375 263.40625 439.308594 268.757812 440.46875 273.929688 C 445.300781 295.453125 450.289062 317.707031 450.105469 339.863281 C 450.003906 349.90625 448.65625 359.644531 446.113281 368.84375 C 440.007812 390.957031 427.886719 407.757812 411.066406 417.433594 C 392.628906 428.066406 367.46875 430.195312 340.226562 423.414062 C 327.375 420.21875 315.167969 415.464844 305.96875 411.683594 C 301.269531 409.765625 296.546875 407.746094 291.964844 405.804688 C 285.8125 403.1875 279.449219 400.488281 273.171875 397.996094 C 227.367188 379.8125 184.195312 372.449219 144.859375 376.113281 C 128.769531 377.621094 113.097656 381.089844 98.300781 386.4375 C 70.851562 396.332031 47.34375 412.417969 30.328125 432.953125 C 0.820312 468.566406 -7.886719 518.953125 8.65625 558.347656 L 7.726562 558.738281 C -8.960938 519.015625 -0.195312 468.203125 29.546875 432.308594 C 46.675781 411.628906 70.339844 395.4375 97.957031 385.484375 C 112.839844 380.109375 128.582031 376.617188 144.769531 375.105469 C 184.265625 371.429688 227.589844 378.816406 273.550781 397.058594 C 279.835938 399.554688 286.207031 402.257812 292.367188 404.882812 C 296.941406 406.820312 301.664062 408.835938 306.355469 410.75 C 315.527344 414.515625 327.6875 419.25 340.476562 422.433594 C 367.460938 429.152344 392.359375 427.066406 410.5625 416.566406 C 431.523438 404.515625 440.9375 383.816406 445.144531 368.578125 C 447.664062 359.472656 449 349.808594 449.097656 339.855469 C 449.28125 317.816406 444.304688 295.617188 439.488281 274.152344 C 438.324219 268.976562 437.132812 263.621094 436.007812 258.339844 C 435.414062 255.511719 434.894531 252.949219 434.421875 250.5 C 426.949219 211.714844 428.96875 182.902344 440.761719 159.851562 C 442.871094 155.714844 445.355469 151.722656 448.125 147.960938 C 467.835938 121.265625 505.160156 103.847656 550.527344 100.183594 C 571.480469 98.503906 592.738281 99.257812 613.300781 99.992188 C 634.902344 100.765625 657.242188 101.558594 679.210938 99.523438 C 699.488281 97.636719 719.136719 92.667969 736.027344 85.167969 C 759.558594 74.722656 778 59.828125 787.992188 43.21875 L 788.070312 43.089844 L 788.933594 43.609375 L 788.855469 43.738281 Z M 788.851562 43.726562 " fill-opacity="1" fill-rule="nonzero"/></g></g></g></g><g clip-path="url(#649ef3f835)"><g clip-path="url(#40cacd5964)"><g clip-path="url(#bd82c37437)"><g clip-path="url(#547a484aa4)"><path fill="#29abe2" d="M 783.027344 42.71875 C 772.714844 58.074219 753.585938 72.742188 730.539062 82.972656 C 713.777344 90.410156 694.308594 95.476562 674.230469 97.636719 C 652.539062 99.953125 630.519531 99.589844 609.214844 99.242188 C 589 98.914062 568.101562 98.566406 547.539062 100.515625 C 521.390625 103.011719 473.582031 112.5 447.265625 147.960938 C 444.542969 151.621094 442.117188 155.519531 440.027344 159.539062 C 424.816406 188.902344 428.507812 224.261719 432.609375 248.300781 C 433.046875 250.882812 433.511719 253.460938 434 256.039062 C 434.902344 260.84375 435.871094 265.710938 436.808594 270.421875 C 441.121094 292.078125 445.570312 314.46875 444.753906 336.5625 C 444.363281 346.417969 442.765625 355.925781 440.007812 364.816406 C 433.410156 386.164062 421.0625 402.320312 404.289062 411.542969 C 386.058594 421.617188 361.167969 423.613281 334.191406 417.171875 C 321.699219 414.1875 310.019531 409.90625 300.238281 406.117188 C 296.136719 404.53125 292.054688 402.914062 287.988281 401.292969 C 281.34375 398.648438 274.472656 395.917969 267.691406 393.441406 C 222.582031 376.921875 180.128906 371.003906 141.519531 375.847656 C 125.828125 377.832031 110.621094 381.707031 96.316406 387.386719 C 69.835938 397.878906 47.273438 414.320312 31.097656 434.921875 C 3.125 470.554688 -4.582031 520.4375 11.917969 559.058594 L 10.984375 559.453125 C 2.527344 539.667969 0.0976562 517.117188 3.9375 494.25 C 7.621094 472.304688 16.734375 451.574219 30.304688 434.304688 C 46.589844 413.554688 69.289062 397.007812 95.9375 386.449219 C 110.3125 380.746094 125.601562 376.835938 141.378906 374.847656 C 180.152344 369.980469 222.761719 375.914062 268.03125 392.488281 C 274.816406 394.96875 281.699219 397.707031 288.34375 400.351562 C 292.40625 401.960938 296.480469 403.585938 300.582031 405.171875 C 310.335938 408.953125 321.976562 413.214844 334.410156 416.183594 C 361.144531 422.5625 385.785156 420.605469 403.789062 410.652344 C 420.320312 401.558594 432.507812 385.609375 439.027344 364.507812 C 441.761719 355.695312 443.339844 346.273438 443.734375 336.511719 C 444.550781 314.535156 440.101562 292.207031 435.804688 270.605469 C 434.871094 265.886719 433.894531 261.011719 432.992188 256.207031 C 432.503906 253.628906 432.042969 251.046875 431.597656 248.457031 C 427.472656 224.273438 423.757812 188.703125 439.117188 159.0625 C 441.226562 154.984375 443.6875 151.050781 446.433594 147.34375 C 472.988281 111.566406 521.109375 102.007812 547.421875 99.492188 C 568.042969 97.542969 588.976562 97.878906 609.214844 98.207031 C 630.480469 98.554688 652.480469 98.917969 674.109375 96.609375 C 694.078125 94.46875 713.441406 89.417969 730.105469 82.027344 C 752.976562 71.871094 771.957031 57.335938 782.167969 42.128906 L 783.007812 42.691406 Z M 783.027344 42.71875 " fill-opacity="1" fill-rule="nonzero"/></g></g></g></g><g clip-path="url(#eb0933e688)"><g clip-path="url(#04fe8bed72)"><g clip-path="url(#ea1e021e3c)"><g clip-path="url(#cd9d842e81)"><path fill="#29abe2" d="M 777.117188 41.847656 C 766.355469 56.003906 747.226562 69.859375 724.65625 79.867188 C 708.128906 87.1875 688.953125 92.335938 669.183594 94.75 C 647.835938 97.335938 626.152344 97.410156 605.183594 97.488281 C 585.292969 97.558594 564.71875 97.625 544.472656 99.847656 C 518.660156 102.714844 471.484375 112.675781 445.597656 147.367188 C 442.90625 150.980469 440.480469 154.816406 438.398438 158.78125 C 423.339844 187.5 426.285156 222.488281 429.820312 246.304688 C 430.195312 248.851562 430.59375 251.398438 431.015625 253.949219 C 431.71875 258.246094 432.46875 262.535156 433.210938 266.832031 C 436.992188 288.664062 440.894531 311.230469 439.421875 333.285156 C 438.742188 342.953125 436.882812 352.210938 433.917969 360.824219 C 426.839844 381.398438 414.257812 396.910156 397.539062 405.691406 C 374.457031 417.878906 347.082031 415.292969 328.179688 410.972656 C 316 408.191406 304.332031 404.164062 294.523438 400.59375 C 291.089844 399.351562 287.675781 398.089844 284.277344 396.832031 C 277.058594 394.164062 269.589844 391.402344 262.242188 388.949219 C 217.816406 374.070312 176.085938 369.59375 138.203125 375.644531 C 122.914062 378.089844 108.164062 382.382812 94.371094 388.390625 C 68.847656 399.484375 47.25 416.273438 31.902344 436.949219 C 5.050781 473.148438 -1.503906 521.367188 15.207031 559.8125 L 14.285156 560.210938 C -2.574219 521.445312 4.019531 472.824219 31.089844 436.34375 C 46.535156 415.523438 68.28125 398.625 93.960938 387.464844 C 107.835938 381.417969 122.660156 377.101562 138.042969 374.640625 C 176.085938 368.558594 217.984375 373.050781 262.554688 387.980469 C 269.917969 390.445312 277.394531 393.210938 284.621094 395.886719 C 288.023438 397.144531 291.433594 398.40625 294.867188 399.648438 C 304.648438 403.210938 316.273438 407.226562 328.40625 409.992188 C 347.140625 414.269531 374.265625 416.84375 397.074219 404.800781 C 413.5625 396.148438 425.96875 380.828125 432.96875 360.5 C 435.914062 351.980469 437.753906 342.792969 438.425781 333.214844 C 439.894531 311.289062 436.003906 288.777344 432.230469 267.007812 C 431.488281 262.722656 430.738281 258.421875 430.039062 254.125 C 429.617188 251.574219 429.21875 249.027344 428.835938 246.46875 C 425.285156 222.511719 422.320312 187.296875 437.519531 158.324219 C 439.625 154.316406 442.074219 150.421875 444.800781 146.773438 C 470.917969 111.777344 518.398438 101.71875 544.378906 98.851562 C 564.675781 96.621094 585.269531 96.554688 605.199219 96.484375 C 626.140625 96.414062 647.777344 96.335938 669.074219 93.757812 C 688.742188 91.351562 707.828125 86.242188 724.265625 78.949219 C 746.351562 69.15625 765.824219 55.058594 776.332031 41.234375 L 777.132812 41.84375 Z M 777.117188 41.847656 " fill-opacity="1" fill-rule="nonzero"/></g></g></g></g><g clip-path="url(#4c607af66f)"><g clip-path="url(#bcaecf169c)"><g clip-path="url(#03f5101757)"><g clip-path="url(#76577a5ef2)"><path fill="#29abe2" d="M 771.199219 40.972656 C 760.015625 53.789062 740.410156 67.171875 718.757812 76.765625 C 702.46875 83.984375 683.578125 89.210938 664.113281 91.878906 C 643.101562 94.734375 621.773438 95.246094 601.144531 95.742188 C 581.566406 96.210938 561.316406 96.699219 541.40625 99.191406 C 515.921875 102.410156 469.375 112.875 443.929688 146.789062 C 441.257812 150.351562 438.851562 154.132812 436.78125 158.046875 C 422.039062 185.785156 423.835938 218.730469 427.035156 244.335938 C 427.351562 246.859375 427.691406 249.371094 428.039062 251.886719 C 428.582031 255.746094 429.144531 259.605469 429.714844 263.457031 C 432.949219 285.398438 436.296875 308.089844 434.085938 330.015625 C 433.140625 339.417969 431.035156 348.441406 427.8125 356.832031 C 420.261719 376.628906 407.449219 391.507812 390.769531 399.828125 C 367.980469 411.296875 340.867188 408.835938 322.136719 404.761719 C 310.347656 402.191406 299.140625 398.582031 288.789062 395.050781 C 286.136719 394.148438 283.476562 393.246094 280.839844 392.339844 C 272.945312 389.640625 264.785156 386.839844 256.761719 384.414062 C 213.03125 371.15625 172.011719 368.121094 134.863281 375.398438 C 119.980469 378.328125 105.691406 383.027344 92.390625 389.367188 C 67.832031 401.054688 47.191406 418.191406 32.679688 438.949219 C 7.367188 475.132812 1.800781 522.863281 18.480469 560.542969 L 17.550781 560.953125 C 0.742188 522.957031 6.355469 474.839844 31.851562 438.367188 C 46.460938 417.46875 67.242188 400.214844 91.960938 388.460938 C 105.328125 382.078125 119.699219 377.359375 134.667969 374.410156 C 171.988281 367.105469 213.160156 370.136719 257.058594 383.449219 C 265.097656 385.886719 273.273438 388.683594 281.175781 391.390625 C 283.816406 392.292969 286.460938 393.203125 289.125 394.097656 C 299.449219 397.613281 310.628906 401.21875 322.363281 403.777344 C 340.933594 407.824219 367.800781 410.257812 390.320312 398.925781 C 406.773438 390.710938 419.414062 376.023438 426.875 356.46875 C 430.058594 348.164062 432.148438 339.222656 433.089844 329.910156 C 435.285156 308.105469 431.953125 285.480469 428.71875 263.601562 C 428.152344 259.75 427.578125 255.882812 427.035156 252.023438 C 426.691406 249.507812 426.34375 246.992188 426.035156 244.464844 C 422.808594 218.714844 421.011719 185.570312 435.886719 157.578125 C 437.980469 153.621094 440.417969 149.789062 443.125 146.1875 C 468.796875 111.976562 515.648438 101.433594 541.289062 98.191406 C 561.261719 95.699219 581.523438 95.207031 601.125 94.738281 C 621.730469 94.242188 643.027344 93.738281 663.984375 90.882812 C 683.347656 88.222656 702.152344 83.027344 718.351562 75.851562 C 739.875 66.320312 759.339844 53.03125 770.441406 40.316406 L 771.195312 40.980469 Z M 771.199219 40.972656 " fill-opacity="1" fill-rule="nonzero"/></g></g></g></g><g clip-path="url(#b0f388372b)"><g clip-path="url(#b7018bd3cf)"><g clip-path="url(#c28c6b5c58)"><g clip-path="url(#653e9a557f)"><path fill="#29abe2" d="M 765.277344 40.105469 C 753.457031 51.730469 733.375 64.589844 712.875 73.664062 C 696.816406 80.773438 678.207031 86.074219 659.0625 88.992188 C 638.398438 92.128906 617.410156 93.066406 597.113281 93.988281 C 577.847656 94.855469 557.9375 95.761719 538.347656 98.519531 C 507.621094 102.890625 466.015625 114.71875 442.257812 146.199219 C 439.617188 149.707031 437.222656 153.433594 435.152344 157.289062 C 420.566406 184.371094 421.667969 216.96875 424.242188 242.335938 C 424.496094 244.832031 424.769531 247.316406 425.046875 249.792969 C 425.429688 253.109375 425.832031 256.433594 426.230469 259.746094 C 428.910156 281.90625 431.683594 304.828125 428.75 326.722656 C 427.515625 335.941406 425.148438 344.714844 421.71875 352.824219 C 413.703125 371.847656 400.667969 386.074219 384.003906 393.957031 C 361.519531 404.703125 334.679688 402.378906 316.117188 398.535156 C 305.378906 396.316406 295.140625 393.324219 283.066406 389.5 L 277.808594 387.84375 C 269.109375 385.09375 260.113281 382.261719 251.292969 379.875 C 208.242188 368.214844 167.949219 366.632812 131.523438 375.15625 C 117.035156 378.558594 103.210938 383.664062 90.417969 390.335938 C 66.828125 402.605469 47.136719 420.101562 33.460938 440.9375 C 9.722656 477.113281 5.113281 524.347656 21.75 561.277344 L 20.832031 561.6875 C 4.058594 524.457031 8.691406 476.847656 32.617188 440.382812 C 46.390625 419.40625 66.214844 401.789062 89.953125 389.445312 C 102.816406 382.734375 116.730469 377.597656 131.292969 374.171875 C 167.871094 365.605469 208.332031 367.199219 251.546875 378.898438 C 260.394531 381.289062 269.390625 384.132812 278.105469 386.878906 L 283.363281 388.535156 C 295.402344 392.339844 305.617188 395.328125 316.3125 397.546875 C 334.71875 401.355469 361.335938 403.660156 383.5625 393.046875 C 399.988281 385.265625 412.863281 371.226562 420.773438 352.433594 C 424.167969 344.40625 426.511719 335.714844 427.734375 326.59375 C 430.652344 304.820312 427.890625 281.976562 425.21875 259.867188 C 424.820312 256.554688 424.417969 253.226562 424.03125 249.910156 C 423.746094 247.429688 423.476562 244.9375 423.222656 242.441406 C 420.628906 216.929688 419.539062 184.140625 434.246094 156.816406 C 436.34375 152.917969 438.769531 149.136719 441.445312 145.589844 C 465.398438 113.839844 507.28125 101.929688 538.195312 97.519531 C 557.839844 94.746094 577.773438 93.84375 597.058594 92.976562 C 617.328125 92.066406 638.289062 91.121094 658.902344 87.988281 C 677.96875 85.082031 696.488281 79.808594 712.457031 72.730469 C 732.859375 63.703125 752.828125 50.914062 764.566406 39.371094 L 765.273438 40.09375 Z M 765.277344 40.105469 " fill-opacity="1" fill-rule="nonzero"/></g></g></g></g><g clip-path="url(#69bb1f1f9b)"><g clip-path="url(#5cc00a202b)"><g clip-path="url(#04e1f9170e)"><g clip-path="url(#bb5fc3f4fb)"><path fill="#29abe2" d="M 759.359375 39.230469 C 746.441406 49.898438 725.882812 62.199219 706.988281 70.558594 C 691.175781 77.554688 672.851562 82.933594 654 86.113281 C 633.671875 89.511719 613.035156 90.894531 593.074219 92.242188 C 574.136719 93.507812 554.542969 94.824219 535.277344 97.863281 C 504.953125 102.6875 463.910156 114.886719 440.59375 145.617188 C 437.972656 149.070312 435.597656 152.75 433.527344 156.546875 C 419.117188 182.96875 419.503906 215.21875 421.453125 240.351562 C 421.648438 242.8125 421.855469 245.269531 422.070312 247.707031 C 422.316406 250.457031 422.570312 253.203125 422.828125 255.945312 C 424.9375 278.363281 427.109375 301.546875 423.410156 323.4375 C 421.890625 332.449219 419.273438 340.992188 415.617188 348.824219 C 407.167969 367.066406 393.886719 380.640625 377.25 388.09375 C 359.707031 396.027344 336.476562 397.492188 310.097656 392.328125 C 298.683594 390.097656 287.660156 386.976562 277.359375 383.96875 L 275.261719 383.367188 C 265.15625 380.445312 255.613281 377.683594 245.84375 375.363281 C 203.464844 365.28125 163.886719 365.140625 128.214844 374.933594 C 114.136719 378.816406 100.769531 384.328125 88.476562 391.335938 C 65.859375 404.175781 47.121094 422.035156 34.265625 442.953125 C 34.058594 443.296875 33.847656 443.644531 33.640625 443.988281 C 11.664062 480.519531 8.355469 525.640625 25.042969 562.03125 L 24.125 562.457031 C 15.601562 543.882812 12.144531 522.585938 14.113281 500.867188 C 15.996094 480.132812 22.699219 459.90625 33.410156 442.4375 C 46.34375 421.367188 65.21875 403.402344 87.980469 390.472656 C 100.347656 383.425781 113.792969 377.878906 127.957031 373.976562 C 163.796875 364.132812 203.539062 364.277344 246.082031 374.398438 C 255.875 376.722656 265.425781 379.488281 275.550781 382.410156 L 277.652344 383.015625 C 287.933594 386.011719 298.925781 389.125 310.304688 391.355469 C 336.484375 396.480469 359.496094 395.042969 376.847656 387.191406 C 393.269531 379.84375 406.367188 366.433594 414.722656 348.414062 C 418.332031 340.671875 420.925781 332.210938 422.429688 323.285156 C 426.109375 301.523438 423.933594 278.40625 421.839844 256.058594 C 421.585938 253.3125 421.328125 250.570312 421.074219 247.816406 C 420.855469 245.363281 420.648438 242.90625 420.453125 240.445312 C 418.492188 215.160156 418.105469 182.726562 432.644531 156.074219 C 434.738281 152.234375 437.144531 148.511719 439.796875 145.023438 C 463.320312 114.027344 504.621094 101.734375 535.125 96.886719 C 554.4375 93.84375 574.042969 92.519531 593.003906 91.257812 C 612.941406 89.921875 633.5625 88.539062 653.832031 85.140625 C 672.589844 81.976562 690.832031 76.617188 706.574219 69.660156 C 725.386719 61.339844 745.851562 49.097656 758.71875 38.480469 L 759.359375 39.253906 Z M 759.359375 39.230469 " fill-opacity="1" fill-rule="nonzero"/></g></g></g></g><g clip-path="url(#5587a65ecf)"><g clip-path="url(#96bcc909bd)"><g clip-path="url(#e003df5684)"><g clip-path="url(#7e33db5398)"><path fill="#29abe2" d="M 753.425781 38.367188 C 747.398438 42.433594 725.792969 56.53125 701.089844 67.457031 C 685.285156 74.445312 667.742188 79.753906 648.9375 83.230469 C 628.949219 86.902344 608.664062 88.726562 589.039062 90.484375 C 570.414062 92.152344 551.160156 93.886719 532.214844 97.195312 C 502.289062 102.472656 461.808594 115.050781 438.921875 145.027344 C 436.328125 148.421875 433.964844 152.054688 431.894531 155.789062 C 417.75 181.378906 417.265625 211.890625 418.65625 238.363281 C 418.785156 240.796875 418.929688 243.214844 419.078125 245.636719 C 419.214844 247.777344 419.359375 249.925781 419.5 252.058594 C 421.007812 274.773438 422.570312 298.265625 418.070312 320.15625 C 416.257812 328.96875 413.382812 337.269531 409.523438 344.816406 C 400.515625 362.515625 387.375 375.097656 370.484375 382.222656 C 352.960938 389.695312 330.617188 391 304.074219 386.109375 C 293.296875 384.125 283.007812 381.457031 271.632812 378.429688 C 260.472656 375.484375 250.417969 372.886719 240.378906 370.835938 C 198.664062 362.320312 159.808594 363.617188 124.894531 374.703125 C 111.222656 379.054688 98.308594 384.980469 86.515625 392.320312 C 64.867188 405.746094 47.074219 423.949219 35.058594 444.960938 C 14.089844 481.636719 11.511719 526.773438 28.320312 562.769531 L 27.40625 563.195312 C 10.460938 526.917969 13.058594 481.414062 34.183594 444.457031 C 46.292969 423.292969 64.195312 404.964844 85.984375 391.460938 C 97.847656 384.078125 110.835938 378.113281 124.585938 373.742188 C 159.675781 362.609375 198.703125 361.296875 240.582031 369.851562 C 250.644531 371.902344 260.714844 374.511719 271.898438 377.460938 C 283.25 380.484375 293.523438 383.144531 304.261719 385.128906 C 330.601562 389.988281 352.757812 388.703125 370.101562 381.308594 C 386.769531 374.285156 399.730469 361.863281 408.636719 344.378906 C 412.460938 336.902344 415.300781 328.699219 417.097656 319.972656 C 421.570312 298.203125 420.011719 274.789062 418.507812 252.144531 C 418.363281 249.996094 418.21875 247.863281 418.082031 245.71875 C 417.929688 243.296875 417.78125 240.875 417.652344 238.445312 C 416.253906 211.828125 416.742188 181.136719 431.015625 155.332031 C 433.105469 151.546875 435.5 147.878906 438.121094 144.4375 C 461.203125 114.199219 501.9375 101.53125 532.042969 96.234375 C 551.027344 92.910156 570.308594 91.191406 588.953125 89.515625 C 608.554688 87.753906 628.824219 85.933594 648.761719 82.265625 C 667.480469 78.796875 684.964844 73.511719 700.691406 66.558594 C 720.253906 57.90625 740.46875 45.90625 752.863281 37.558594 L 753.429688 38.394531 Z M 753.425781 38.367188 " fill-opacity="1" fill-rule="nonzero"/></g></g></g></g><g clip-path="url(#cfcb495528)"><g clip-path="url(#79b3523d5b)"><g clip-path="url(#4796bb5201)"><g clip-path="url(#2c28e99f24)"><path fill="#29abe2" d="M 747.492188 37.496094 C 744.546875 39.046875 741.042969 40.953125 737.328125 42.980469 C 725.308594 49.527344 710.351562 57.664062 695.222656 64.351562 C 679.660156 71.226562 662.390625 76.605469 643.894531 80.351562 C 624.253906 84.292969 604.304688 86.550781 585.015625 88.734375 C 566.710938 90.808594 547.777344 92.945312 529.152344 96.53125 C 486.183594 104.867188 455.273438 120.984375 437.261719 144.441406 C 434.691406 147.792969 432.335938 151.355469 430.273438 155.039062 C 416.3125 179.949219 415.152344 210.136719 415.867188 236.378906 C 415.933594 238.777344 416.015625 241.167969 416.101562 243.550781 L 416.273438 248.082031 C 417.160156 271.128906 418.089844 294.957031 412.738281 316.878906 C 410.640625 325.496094 407.5 333.554688 403.433594 340.824219 C 394.023438 357.664062 380.675781 369.628906 363.738281 376.363281 C 346.425781 383.246094 324.328125 384.4375 298.070312 379.894531 C 287.363281 378.050781 276.902344 375.523438 266.78125 373.085938 L 265.933594 372.882812 C 254.371094 370.128906 244.667969 367.953125 234.929688 366.300781 C 194.4375 359.414062 155.242188 362.238281 121.582031 374.453125 C 108.324219 379.277344 95.863281 385.617188 84.570312 393.28125 C 63.894531 407.269531 47.054688 425.824219 35.871094 446.941406 C 16.460938 483.570312 14.84375 528.226562 31.617188 563.476562 L 30.707031 563.910156 C 13.792969 528.367188 15.433594 483.363281 34.980469 446.464844 C 46.246094 425.207031 63.203125 406.523438 84.007812 392.4375 C 95.375 384.722656 107.902344 378.351562 121.238281 373.492188 C 155.070312 361.214844 194.4375 358.378906 235.101562 365.296875 C 244.859375 366.949219 254.578125 369.125 266.167969 371.890625 L 267.011719 372.09375 C 277.117188 374.523438 287.570312 377.042969 298.238281 378.890625 C 324.320312 383.394531 346.222656 382.230469 363.367188 375.410156 C 380.089844 368.761719 393.273438 356.96875 402.558594 340.320312 C 406.589844 333.125 409.6875 325.15625 411.769531 316.625 C 417.085938 294.847656 416.160156 271.082031 415.28125 248.109375 L 415.109375 243.578125 C 415.023438 241.195312 414.9375 238.789062 414.871094 236.394531 C 414.15625 210.011719 415.3125 179.65625 429.398438 154.535156 C 431.488281 150.808594 433.859375 147.195312 436.460938 143.816406 C 454.625 120.160156 485.742188 103.917969 528.964844 95.535156 C 547.625 91.949219 566.574219 89.804688 584.902344 87.726562 C 604.171875 85.539062 624.101562 83.292969 643.691406 79.359375 C 662.121094 75.628906 679.316406 70.265625 694.804688 63.417969 C 709.902344 56.746094 724.839844 48.621094 736.839844 42.085938 C 740.558594 40.058594 744.074219 38.148438 747.019531 36.601562 Z M 747.492188 37.496094 " fill-opacity="1" fill-rule="nonzero"/></g></g></g></g><g clip-path="url(#968420a7e1)"><g clip-path="url(#7c7be1c89f)"><g clip-path="url(#25f9e69eee)"><g clip-path="url(#52fb6d4e44)"><path fill="#29abe2" d="M 741.539062 36.625 C 735.0625 39.109375 726.484375 43.359375 716.554688 48.277344 C 708.121094 52.445312 698.574219 57.171875 689.324219 61.25 C 673.996094 68.007812 657.007812 73.472656 638.824219 77.480469 C 619.535156 81.699219 599.929688 84.390625 580.976562 86.988281 C 562.988281 89.460938 544.382812 92.011719 526.089844 95.867188 C 483.683594 104.871094 453.234375 121.019531 435.59375 143.847656 C 433.042969 147.140625 430.707031 150.65625 428.652344 154.285156 C 414.917969 178.453125 413.054688 207.0625 413.085938 234.386719 C 413.085938 236.757812 413.105469 239.113281 413.125 241.46875 L 413.148438 244 C 413.394531 267.417969 413.644531 291.636719 407.402344 313.585938 C 405.011719 322.003906 401.621094 329.816406 397.332031 336.8125 C 387.527344 352.851562 373.949219 364.183594 356.96875 370.476562 C 339.957031 376.785156 318.109375 377.855469 292.039062 373.667969 C 282.394531 372.113281 272.917969 370.066406 263.765625 368.089844 L 260.21875 367.324219 C 251.140625 365.398438 240.382812 363.234375 229.476562 361.757812 C 189.605469 356.367188 151.148438 360.667969 118.257812 374.195312 C 105.40625 379.5 93.414062 386.238281 82.605469 394.242188 C 62.902344 408.78125 47.011719 427.695312 36.648438 448.917969 C 18.8125 485.476562 18.132812 529.648438 34.882812 564.195312 L 33.972656 564.636719 C 17.085938 529.820312 17.761719 485.304688 35.738281 448.476562 C 46.167969 427.101562 62.167969 408.066406 81.996094 393.429688 C 92.871094 385.382812 104.941406 378.59375 117.863281 373.265625 C 150.914062 359.667969 189.554688 355.335938 229.59375 360.757812 C 240.535156 362.230469 251.316406 364.40625 260.414062 366.335938 L 263.957031 367.101562 C 273.113281 369.074219 282.570312 371.113281 292.183594 372.660156 C 318.089844 376.832031 339.761719 375.777344 356.613281 369.519531 C 373.375 363.296875 386.785156 352.109375 396.46875 336.269531 C 400.699219 329.371094 404.066406 321.621094 406.425781 313.292969 C 412.625 291.46875 412.375 267.332031 412.128906 243.988281 L 412.109375 241.457031 C 412.089844 239.101562 412.074219 236.734375 412.074219 234.367188 C 412.042969 206.902344 413.921875 178.125 427.773438 153.769531 C 429.867188 150.09375 432.226562 146.542969 434.796875 143.214844 C 452.585938 120.179688 483.234375 103.914062 525.882812 94.859375 C 544.21875 90.992188 562.835938 88.4375 580.847656 85.96875 C 599.777344 83.367188 619.359375 80.675781 638.617188 76.472656 C 656.730469 72.484375 673.660156 67.039062 688.921875 60.3125 C 698.15625 56.238281 707.699219 51.519531 716.109375 47.347656 C 726.0625 42.417969 734.660156 38.171875 741.183594 35.667969 L 741.546875 36.613281 Z M 741.539062 36.625 " fill-opacity="1" fill-rule="nonzero"/></g></g></g></g><g clip-path="url(#c61007ab2d)"><g clip-path="url(#522886cd5e)"><g clip-path="url(#eac9d690f9)"><g clip-path="url(#3da8692cd0)"><path fill="#29abe2" d="M 735.585938 35.75 C 727.027344 37.855469 714.582031 43.699219 701.414062 49.882812 C 695.523438 52.648438 689.429688 55.511719 683.433594 58.15625 C 668.351562 64.800781 651.636719 70.335938 633.769531 74.601562 C 614.8125 79.09375 595.566406 82.222656 576.949219 85.246094 C 559.269531 88.121094 541.003906 91.085938 523.03125 95.214844 C 480.582031 105.03125 451.441406 120.753906 433.933594 143.273438 C 431.417969 146.515625 429.089844 149.980469 427.035156 153.546875 C 413.503906 177 410.996094 205.316406 410.300781 232.417969 C 410.242188 234.75 410.191406 237.085938 410.148438 239.40625 L 410.136719 239.855469 C 409.707031 263.679688 409.269531 288.320312 402.074219 310.320312 C 399.390625 318.539062 395.742188 326.117188 391.242188 332.832031 C 381.0625 348.066406 367.261719 358.769531 350.222656 364.640625 C 333.300781 370.464844 312.304688 371.386719 286.027344 367.484375 C 277.496094 366.214844 269.078125 364.601562 260.933594 363.042969 C 258.777344 362.632812 256.632812 362.222656 254.496094 361.820312 C 242.304688 359.5625 232.902344 358.15625 224.011719 357.269531 C 184.75 353.351562 147.023438 359.140625 114.9375 374 C 102.496094 379.773438 90.960938 386.929688 80.644531 395.265625 C 61.910156 410.351562 46.976562 429.613281 37.445312 450.964844 C 20.917969 487.992188 21.191406 530.617188 38.167969 564.980469 L 37.265625 565.425781 C 20.152344 530.796875 19.878906 487.859375 36.527344 450.550781 C 46.125 429.054688 61.160156 409.660156 80.015625 394.476562 C 90.390625 386.09375 101.996094 378.886719 114.511719 373.082031 C 146.765625 358.140625 184.671875 352.328125 224.113281 356.261719 C 233.039062 357.144531 242.464844 358.550781 254.6875 360.816406 C 256.824219 361.21875 258.96875 361.628906 261.125 362.039062 C 269.257812 363.601562 277.667969 365.207031 286.175781 366.476562 C 312.292969 370.367188 333.128906 369.453125 349.886719 363.683594 C 366.71875 357.890625 380.347656 347.320312 390.398438 332.277344 C 394.851562 325.640625 398.449219 318.148438 401.109375 310.011719 C 408.253906 288.144531 408.691406 263.585938 409.117188 239.832031 L 409.128906 239.378906 C 409.171875 237.050781 409.21875 234.722656 409.285156 232.382812 C 409.984375 205.15625 412.507812 176.695312 426.152344 153.039062 C 428.226562 149.4375 430.582031 145.929688 433.132812 142.648438 C 450.789062 119.9375 480.117188 104.101562 522.800781 94.226562 C 540.808594 90.097656 559.101562 87.125 576.785156 84.242188 C 595.390625 81.222656 614.621094 78.097656 633.539062 73.617188 C 651.351562 69.363281 668.003906 63.851562 683.027344 57.226562 C 689.007812 54.585938 695.09375 51.734375 700.988281 48.96875 C 714.203125 42.765625 726.695312 36.902344 735.351562 34.773438 L 735.59375 35.753906 Z M 735.585938 35.75 " fill-opacity="1" fill-rule="nonzero"/></g></g></g></g><g clip-path="url(#c861dd4eff)"><g clip-path="url(#7bb9d1cd6e)"><g clip-path="url(#55b853aefd)"><g clip-path="url(#27550c3354)"><path fill="#29abe2" d="M 729.628906 34.863281 C 719.578125 36 704.726562 42.75 689.007812 49.886719 C 685.234375 51.597656 681.339844 53.375 677.542969 55.046875 C 662.695312 61.589844 646.273438 67.191406 628.710938 71.710938 C 610.097656 76.472656 591.191406 80.039062 572.90625 83.488281 C 555.554688 86.757812 537.613281 90.140625 519.957031 94.542969 C 478.054688 105.0625 449.367188 120.8125 432.25 142.683594 C 429.757812 145.871094 427.449219 149.277344 425.390625 152.792969 C 411.414062 176.675781 408.820312 205.386719 407.496094 230.425781 C 407.371094 232.726562 407.257812 235.027344 407.152344 237.320312 C 406.105469 259.664062 404.910156 284.992188 396.726562 307.03125 C 393.75 315.050781 389.847656 322.382812 385.140625 328.820312 C 374.613281 343.246094 360.589844 353.320312 343.453125 358.753906 C 326.902344 364 306.152344 364.8125 280.003906 361.246094 C 272.648438 360.234375 265.347656 359.011719 258.289062 357.824219 C 255.101562 357.285156 251.933594 356.757812 248.785156 356.253906 C 237.183594 354.410156 227.582031 353.296875 218.554688 352.714844 C 179.867188 350.25 142.882812 357.523438 111.613281 373.730469 C 99.585938 379.976562 88.507812 387.539062 78.6875 396.207031 C 60.671875 412.054688 47.0625 431.136719 38.238281 452.933594 C 23.289062 489.867188 24.480469 532.019531 41.449219 565.695312 L 40.546875 566.15625 C 23.453125 532.226562 22.242188 489.765625 37.304688 452.5625 C 46.191406 430.625 59.890625 411.417969 78.03125 395.460938 C 87.917969 386.738281 99.0625 379.121094 111.15625 372.84375 C 142.597656 356.550781 179.753906 349.242188 218.628906 351.710938 C 227.683594 352.285156 237.324219 353.410156 248.949219 355.257812 C 252.097656 355.761719 255.273438 356.296875 258.460938 356.835938 C 265.511719 358.015625 272.804688 359.246094 280.144531 360.246094 C 306.152344 363.796875 326.753906 362.992188 343.15625 357.800781 C 360.074219 352.433594 373.929688 342.480469 384.332031 328.226562 C 388.992188 321.867188 392.847656 314.613281 395.792969 306.683594 C 403.925781 284.785156 405.109375 259.535156 406.160156 237.265625 C 406.265625 234.972656 406.382812 232.664062 406.507812 230.363281 C 407.847656 205.203125 410.457031 176.347656 424.539062 152.269531 C 426.625 148.707031 428.953125 145.269531 431.476562 142.054688 C 448.738281 119.996094 477.601562 104.132812 519.726562 93.558594 C 537.410156 89.148438 555.363281 85.757812 572.730469 82.488281 C 591 79.042969 609.890625 75.484375 628.46875 70.730469 C 645.972656 66.222656 662.351562 60.636719 677.148438 54.113281 C 680.929688 52.445312 684.835938 50.671875 688.601562 48.957031 C 704.398438 41.773438 719.324219 35 729.53125 33.851562 L 729.648438 34.851562 Z M 729.628906 34.863281 " fill-opacity="1" fill-rule="nonzero"/></g></g></g></g><g clip-path="url(#7e7b92ad6a)"><g clip-path="url(#5adc981bc3)"><g clip-path="url(#75555af60d)"><g clip-path="url(#83798c21e3)"><path fill="#29abe2" d="M 723.675781 33.96875 C 712.4375 33.777344 695.046875 41.53125 678.234375 49.019531 C 676.027344 50.003906 673.835938 50.980469 671.65625 51.941406 C 657.058594 58.371094 640.902344 64.058594 623.65625 68.835938 C 605.382812 73.871094 586.828125 77.871094 568.882812 81.738281 C 551.851562 85.410156 534.234375 89.203125 516.910156 93.875 C 490.515625 101.03125 452.863281 113.824219 430.605469 142.09375 C 428.140625 145.230469 425.832031 148.574219 423.785156 152.039062 C 410.058594 175.152344 406.839844 202.453125 404.71875 228.4375 C 404.527344 230.714844 404.355469 232.976562 404.183594 235.242188 C 402.230469 260.675781 399.917969 283.398438 391.402344 303.761719 C 388.136719 311.578125 383.980469 318.664062 379.050781 324.824219 C 368.191406 338.449219 353.941406 347.898438 336.707031 352.894531 C 315.222656 359.117188 290.628906 357.097656 273.996094 355.039062 C 267.871094 354.273438 261.757812 353.390625 255.84375 352.527344 C 251.640625 351.917969 247.296875 351.285156 243.082031 350.714844 C 231.996094 349.265625 222.203125 348.433594 213.109375 348.195312 C 174.980469 347.167969 138.734375 355.921875 108.304688 373.492188 C 96.699219 380.207031 86.074219 388.179688 76.734375 397.1875 C 59.691406 413.570312 47.011719 433.003906 39.027344 454.929688 C 25.636719 491.738281 27.773438 533.425781 44.734375 566.425781 L 43.832031 566.882812 C 26.75 533.632812 24.59375 491.652344 38.082031 454.585938 C 46.109375 432.507812 58.875 412.949219 76.027344 396.457031 C 85.429688 387.394531 96.109375 379.371094 107.792969 372.621094 C 138.390625 354.949219 174.816406 346.152344 213.128906 347.179688 C 222.257812 347.421875 232.089844 348.25 243.214844 349.710938 C 247.433594 350.273438 251.785156 350.910156 255.992188 351.523438 C 261.894531 352.378906 268 353.273438 274.117188 354.03125 C 290.660156 356.082031 315.121094 358.089844 336.429688 351.925781 C 353.460938 346.996094 367.535156 337.65625 378.261719 324.195312 C 383.128906 318.105469 387.234375 311.097656 390.46875 303.375 C 398.925781 283.144531 401.226562 260.519531 403.167969 235.167969 C 403.339844 232.90625 403.515625 230.632812 403.707031 228.359375 C 405.835938 202.261719 409.074219 174.832031 422.914062 151.527344 C 424.988281 148.019531 427.3125 144.648438 429.808594 141.476562 C 452.253906 112.976562 490.117188 100.109375 516.644531 92.90625 C 533.996094 88.222656 551.621094 84.425781 568.671875 80.753906 C 586.609375 76.882812 605.148438 72.890625 623.394531 67.863281 C 640.59375 63.105469 656.699219 57.4375 671.253906 51.027344 C 673.429688 50.074219 675.617188 49.097656 677.824219 48.113281 C 694.738281 40.578125 712.234375 32.78125 723.699219 32.96875 L 723.679688 33.980469 Z M 723.675781 33.96875 " fill-opacity="1" fill-rule="nonzero"/></g></g></g></g><g clip-path="url(#6d7d753c90)"><g clip-path="url(#947168df75)"><g clip-path="url(#ef41d0b8d7)"><g clip-path="url(#bc22841619)"><path fill="#29abe2" d="M 717.714844 33.066406 C 705.472656 31.328125 685.851562 39.980469 668.542969 47.621094 L 665.769531 48.847656 C 651.398438 55.167969 635.535156 60.921875 618.601562 65.960938 C 600.675781 71.261719 582.464844 75.707031 564.851562 79.996094 C 548.136719 84.070312 530.847656 88.273438 513.847656 93.226562 C 485.585938 101.492188 450.394531 114.445312 428.9375 141.515625 C 426.496094 144.59375 424.222656 147.886719 422.15625 151.296875 L 422.101562 151.390625 C 408.679688 173.699219 404.78125 200.707031 401.925781 226.464844 C 401.683594 228.625 401.453125 230.792969 401.222656 232.941406 L 401.199219 233.171875 C 398.625 257.09375 395.539062 280.238281 386.066406 300.492188 C 382.496094 308.105469 378.089844 314.945312 372.953125 320.839844 C 361.753906 333.71875 347.285156 342.535156 329.953125 347.042969 C 309.460938 352.460938 286.070312 350.847656 267.984375 348.835938 C 263.152344 348.292969 258.304688 347.695312 253.613281 347.113281 C 248.261719 346.449219 242.730469 345.757812 237.375 345.183594 C 226.59375 344.070312 216.875 343.582031 207.664062 343.679688 C 170.066406 344.082031 134.5625 354.320312 104.988281 373.265625 C 93.796875 380.453125 83.632812 388.832031 74.78125 398.179688 C 58.722656 415.085938 46.957031 434.855469 39.832031 456.945312 C 27.820312 494.160156 30.808594 534.332031 48.027344 567.179688 L 47.132812 567.644531 C 29.800781 534.558594 26.785156 494.101562 38.878906 456.628906 C 46.054688 434.394531 57.890625 414.488281 74.0625 397.476562 C 82.964844 388.078125 93.191406 379.640625 104.453125 372.414062 C 134.191406 353.351562 169.871094 343.070312 207.660156 342.664062 C 216.921875 342.5625 226.671875 343.058594 237.496094 344.175781 C 242.859375 344.742188 248.402344 345.4375 253.75 346.101562 C 258.433594 346.679688 263.273438 347.285156 268.101562 347.820312 C 286.101562 349.816406 309.367188 351.425781 329.699219 346.054688 C 346.835938 341.597656 361.132812 332.886719 372.195312 320.160156 C 377.269531 314.347656 381.625 307.582031 385.152344 300.046875 C 394.5625 279.945312 397.644531 256.882812 400.199219 233.054688 L 400.222656 232.820312 C 400.457031 230.667969 400.683594 228.507812 400.929688 226.335938 C 403.792969 200.46875 407.71875 173.34375 421.246094 150.855469 L 421.304688 150.757812 C 423.378906 147.308594 425.683594 143.984375 428.160156 140.871094 C 449.796875 113.578125 485.171875 100.535156 513.582031 92.238281 C 530.601562 87.289062 547.910156 83.074219 564.632812 79.007812 C 582.230469 74.71875 600.4375 70.28125 618.335938 64.988281 C 635.238281 59.964844 651.058594 54.222656 665.390625 47.925781 L 668.167969 46.699219 C 686.457031 38.636719 705.363281 30.296875 717.890625 32.074219 L 717.746094 33.074219 Z M 717.714844 33.066406 " fill-opacity="1" fill-rule="nonzero"/></g></g></g></g><g clip-path="url(#b33e5a6932)"><g clip-path="url(#fbb8cc53f2)"><g clip-path="url(#f264678177)"><g clip-path="url(#40a801fab8)"><path fill="#29abe2" d="M 711.769531 32.164062 C 698.65625 28.699219 678.058594 37.753906 659.882812 45.742188 C 645.757812 51.953125 630.164062 57.785156 613.539062 63.078125 C 595.953125 68.65625 578.082031 73.53125 560.804688 78.246094 C 544.40625 82.710938 527.453125 87.335938 510.777344 92.554688 C 481.128906 101.871094 448.03125 114.910156 427.261719 140.933594 C 424.851562 143.957031 422.578125 147.191406 420.523438 150.550781 C 407.296875 172.101562 402.875 197.804688 399.125 224.484375 L 398.195312 231.097656 C 395.078125 253.535156 391.15625 277.128906 380.703125 297.207031 C 376.851562 304.605469 372.183594 311.214844 366.835938 316.832031 C 355.359375 328.917969 340.671875 337.097656 323.171875 341.160156 C 303.539062 345.800781 281.199219 344.492188 261.941406 342.609375 C 258.449219 342.261719 254.984375 341.894531 251.535156 341.539062 C 244.664062 340.820312 238.183594 340.136719 231.636719 339.640625 C 221.132812 338.855469 211.5 338.6875 202.179688 339.144531 C 165.089844 340.960938 130.320312 352.675781 101.640625 373.019531 C 90.859375 380.675781 81.164062 389.46875 72.800781 399.144531 C 57.710938 416.570312 46.871094 436.6875 40.597656 458.9375 C 30.15625 495.976562 34.050781 535.695312 51.28125 567.914062 L 50.394531 568.390625 C 33.042969 535.945312 29.121094 495.953125 39.628906 458.671875 C 45.941406 436.269531 56.847656 416.027344 72.035156 398.496094 C 80.449219 388.753906 90.214844 379.910156 101.054688 372.207031 C 129.890625 351.746094 164.84375 339.976562 202.128906 338.148438 C 211.488281 337.691406 221.167969 337.851562 231.714844 338.648438 C 238.269531 339.152344 244.761719 339.832031 251.640625 340.558594 C 255.085938 340.921875 258.558594 341.28125 262.042969 341.621094 C 281.21875 343.5 303.449219 344.792969 322.941406 340.199219 C 340.238281 336.179688 354.761719 328.089844 366.101562 316.152344 C 371.382812 310.605469 375.992188 304.074219 379.808594 296.75 C 390.191406 276.808594 394.089844 253.316406 397.203125 230.96875 L 398.121094 224.351562 C 401.882812 197.574219 406.40625 171.765625 419.652344 150.039062 C 421.726562 146.644531 424.015625 143.371094 426.453125 140.316406 C 447.398438 114.082031 480.667969 100.972656 510.460938 91.609375 C 527.164062 86.386719 544.125 81.765625 560.53125 77.289062 C 577.804688 72.585938 595.660156 67.714844 613.222656 62.136719 C 629.804688 56.851562 645.367188 51.035156 659.460938 44.839844 C 677.78125 36.785156 698.558594 27.664062 712.011719 31.210938 L 711.753906 32.1875 Z M 711.769531 32.164062 " fill-opacity="1" fill-rule="nonzero"/></g></g></g></g><g clip-path="url(#8f834403e3)"><g clip-path="url(#4b2f5f0c01)"><g clip-path="url(#d69408b871)"><g clip-path="url(#1ab27f531e)"><path fill="#29abe2" d="M 705.824219 31.234375 C 691.976562 25.957031 669.109375 35.984375 653.988281 42.621094 C 640.105469 48.71875 624.785156 54.621094 608.476562 60.175781 C 591.230469 66.027344 573.710938 71.335938 556.757812 76.472656 C 540.683594 81.339844 524.058594 86.378906 507.703125 91.871094 C 476.9375 102.238281 445.710938 115.277344 425.582031 140.320312 C 423.1875 143.296875 420.933594 146.476562 418.890625 149.777344 C 404.949219 172.183594 400.164062 200.074219 396.328125 222.472656 L 395.210938 228.992188 C 391.609375 249.976562 386.816406 274.023438 375.359375 293.910156 C 371.207031 301.125 366.285156 307.464844 360.726562 312.8125 C 348.839844 324.265625 334.34375 331.621094 316.40625 335.277344 C 296.792969 339.351562 274.894531 337.976562 255.917969 336.371094 C 253.84375 336.195312 251.785156 336.015625 249.722656 335.835938 C 241.5 335.113281 233.726562 334.441406 225.929688 334.074219 C 215.808594 333.601562 205.984375 333.78125 196.730469 334.59375 C 160.113281 337.8125 126.089844 351.011719 98.324219 372.753906 C 87.96875 380.878906 78.726562 390.074219 70.835938 400.09375 C 56.703125 418.027344 46.800781 438.480469 41.390625 460.910156 C 32.507812 497.746094 37.304688 537.003906 54.5625 568.628906 L 53.675781 569.105469 C 36.296875 537.269531 31.457031 497.75 40.40625 460.667969 C 45.855469 438.101562 55.824219 417.511719 70.050781 399.464844 C 77.980469 389.375 87.28125 380.125 97.695312 371.953125 C 125.609375 350.085938 159.828125 336.816406 196.632812 333.582031 C 205.9375 332.761719 215.808594 332.589844 225.972656 333.0625 C 233.800781 333.441406 241.582031 334.117188 249.804688 334.835938 C 251.867188 335.015625 253.925781 335.195312 256 335.371094 C 274.910156 336.972656 296.710938 338.324219 316.195312 334.292969 C 333.9375 330.667969 348.273438 323.40625 360.019531 312.082031 C 365.515625 306.804688 370.382812 300.5 374.476562 293.398438 C 385.851562 273.667969 390.625 249.714844 394.203125 228.824219 L 395.324219 222.300781 C 399.175781 199.820312 403.96875 171.820312 418.03125 149.25 C 420.105469 145.917969 422.382812 142.695312 424.792969 139.691406 C 445.078125 114.449219 476.472656 101.332031 507.378906 90.921875 C 523.746094 85.425781 540.386719 80.386719 556.460938 75.515625 C 573.402344 70.386719 590.921875 65.074219 608.136719 59.230469 C 624.421875 53.683594 639.707031 47.792969 653.570312 41.707031 C 673.789062 32.828125 693.03125 25.28125 706.171875 30.304688 L 705.820312 31.242188 Z M 705.824219 31.234375 " fill-opacity="1" fill-rule="nonzero"/></g></g></g></g><g clip-path="url(#99a0107181)"><g clip-path="url(#bf3659007b)"><g clip-path="url(#ef841ee158)"><g clip-path="url(#0627ce4e07)"><path fill="#29abe2" d="M 699.890625 30.328125 C 686.566406 23.710938 666.167969 31.613281 648.105469 39.53125 C 634.460938 45.507812 619.433594 51.496094 603.429688 57.304688 C 586.53125 63.421875 569.363281 69.167969 552.742188 74.726562 C 536.980469 79.996094 520.679688 85.453125 504.648438 91.210938 C 476.332031 101.425781 444.402344 114.433594 423.921875 139.746094 C 421.5625 142.671875 419.324219 145.789062 417.273438 149.039062 C 403.691406 170.519531 398.527344 195.921875 393.535156 220.496094 L 393.402344 221.148438 C 393.007812 223.078125 392.613281 225.003906 392.222656 226.925781 C 387.71875 248.90625 381.941406 271.824219 370.015625 290.632812 C 365.527344 297.660156 360.351562 303.777344 354.621094 308.820312 C 342.511719 319.492188 327.796875 326.230469 309.640625 329.429688 C 291.191406 332.71875 271.671875 331.71875 249.898438 330.179688 L 248.15625 330.0625 C 238.480469 329.378906 229.355469 328.726562 220.210938 328.558594 C 210.296875 328.390625 200.5625 328.90625 191.261719 330.09375 C 155.617188 334.652344 121.425781 349.722656 94.988281 372.539062 C 85.058594 381.117188 76.265625 390.738281 68.867188 401.097656 C 55.695312 419.527344 46.710938 440.335938 42.167969 462.929688 C 34.816406 499.53125 40.519531 538.335938 57.832031 569.382812 L 56.949219 569.875 C 39.523438 538.621094 33.78125 499.570312 41.183594 462.726562 C 45.75 439.980469 54.796875 419.046875 68.046875 400.5 C 75.488281 390.070312 84.335938 380.398438 94.324219 371.761719 C 120.910156 348.816406 155.289062 333.652344 191.128906 329.082031 C 200.472656 327.882812 210.265625 327.371094 220.21875 327.542969 C 229.398438 327.71875 238.539062 328.363281 248.21875 329.054688 L 249.960938 329.171875 C 271.671875 330.703125 291.128906 331.707031 309.457031 328.4375 C 327.429688 325.269531 341.980469 318.609375 353.941406 308.070312 C 359.597656 303.089844 364.714844 297.054688 369.144531 290.101562 C 380.96875 271.425781 386.734375 248.621094 391.210938 226.730469 C 391.601562 224.808594 391.996094 222.878906 392.390625 220.949219 L 392.523438 220.300781 C 397.53125 195.640625 402.726562 170.128906 416.394531 148.5 C 418.46875 145.226562 420.726562 142.0625 423.117188 139.109375 C 443.761719 113.601562 475.839844 100.515625 504.285156 90.261719 C 520.324219 84.496094 536.636719 79.039062 552.402344 73.765625 C 569.007812 68.214844 586.167969 62.476562 603.058594 56.351562 C 619.035156 50.550781 634.050781 44.566406 647.675781 38.597656 C 665.949219 30.585938 686.59375 22.609375 700.320312 29.417969 L 699.867188 30.324219 Z M 699.890625 30.328125 " fill-opacity="1" fill-rule="nonzero"/></g></g></g></g><g clip-path="url(#982ffc0afd)"><g clip-path="url(#13a6ddf5a5)"><g clip-path="url(#8ec78efb6d)"><g clip-path="url(#dfb9968edf)"><path fill="#29abe2" d="M 694.484375 28.546875 L 693.964844 29.410156 C 680.808594 21.414062 661.320312 28.0625 642.210938 36.429688 C 628.597656 42.394531 614.257812 48.273438 598.367188 54.421875 C 581.808594 60.816406 564.980469 66.992188 548.710938 72.972656 C 533.265625 78.648438 517.304688 84.503906 501.59375 90.550781 C 472.3125 101.820312 442.070312 114.867188 422.261719 139.160156 C 419.929688 142.019531 417.703125 145.09375 415.652344 148.289062 C 402.441406 168.816406 396.671875 193.371094 391.070312 217.128906 L 390.746094 218.511719 C 390.25 220.628906 389.746094 222.738281 389.242188 224.851562 C 384.335938 245.367188 377.574219 268.839844 364.683594 287.355469 C 359.914062 294.167969 354.484375 300.039062 348.535156 304.820312 C 336.230469 314.714844 321.304688 320.84375 302.898438 323.558594 C 284.6875 326.277344 264.945312 325.160156 245.855469 324.074219 L 243.90625 323.964844 C 233.90625 323.398438 224.132812 322.902344 214.523438 323.007812 C 204.804688 323.132812 195.152344 323.980469 185.839844 325.558594 C 150.609375 331.484375 117.179688 348.085938 91.699219 372.289062 C 82.183594 381.332031 73.855469 391.359375 66.9375 402.070312 C 54.710938 420.984375 46.652344 442.136719 42.988281 464.933594 C 37.0625 501.804688 43.511719 539.160156 61.144531 570.125 L 60.265625 570.621094 C 42.527344 539.449219 36.03125 501.855469 41.992188 464.769531 C 45.679688 441.835938 53.785156 420.546875 66.089844 401.523438 C 73.046875 390.742188 81.429688 380.667969 91.003906 371.566406 C 116.628906 347.214844 150.253906 330.527344 185.671875 324.5625 C 195.042969 322.984375 204.738281 322.125 214.515625 322.003906 C 224.148438 321.898438 233.941406 322.398438 243.96875 322.964844 L 245.921875 323.082031 C 264.96875 324.164062 284.652344 325.277344 302.761719 322.570312 C 320.988281 319.886719 335.753906 313.828125 347.914062 304.046875 C 353.792969 299.328125 359.15625 293.523438 363.867188 286.792969 C 376.675781 268.417969 383.390625 245.054688 388.277344 224.632812 C 388.78125 222.523438 389.28125 220.421875 389.78125 218.296875 L 390.105469 216.914062 C 395.722656 193.070312 401.523438 168.425781 414.8125 147.761719 C 416.886719 144.535156 419.136719 141.4375 421.488281 138.542969 C 441.449219 114.058594 471.832031 100.953125 501.238281 89.632812 C 516.957031 83.589844 532.925781 77.726562 548.371094 72.046875 C 564.640625 66.070312 581.46875 59.894531 598.011719 53.503906 C 613.886719 47.359375 628.214844 41.480469 641.8125 35.519531 C 661.167969 27.039062 680.945312 20.332031 694.488281 28.558594 Z M 694.484375 28.546875 " fill-opacity="1" fill-rule="nonzero"/></g></g></g></g><g clip-path="url(#4a2da084b6)"><g clip-path="url(#c6d147f0db)"><g clip-path="url(#4d781922c9)"><g clip-path="url(#d2b63db4a0)"><path fill="#29abe2" d="M 688.617188 27.667969 L 688.027344 28.488281 C 674.433594 18.757812 654.253906 25.472656 636.316406 33.320312 C 622.96875 39.160156 608.898438 45.121094 593.300781 51.542969 C 577.089844 58.203125 560.609375 64.820312 544.675781 71.214844 C 529.546875 77.292969 513.910156 83.570312 498.519531 89.878906 C 468.355469 102.265625 439.695312 115.3125 420.578125 138.570312 C 418.277344 141.378906 416.0625 144.390625 414.007812 147.535156 C 401.199219 167.101562 394.90625 190.566406 388.816406 213.242188 L 387.941406 216.519531 C 387.378906 218.605469 386.808594 220.691406 386.246094 222.765625 C 380.714844 242.90625 373.1875 265.929688 359.324219 284.0625 C 354.277344 290.648438 348.585938 296.277344 342.410156 300.804688 C 329.953125 309.9375 314.800781 315.460938 296.117188 317.679688 C 279.792969 319.632812 262.28125 318.839844 245.34375 318.070312 C 242.84375 317.957031 240.355469 317.847656 237.863281 317.738281 C 228.566406 317.351562 218.613281 317.035156 208.785156 317.449219 C 199.238281 317.851562 189.671875 319.046875 180.351562 321.007812 C 145.519531 328.316406 112.839844 346.429688 88.347656 372.027344 C 79.261719 381.527344 71.386719 391.957031 64.949219 403.027344 C 53.660156 422.425781 46.523438 443.917969 43.753906 466.910156 C 39.339844 503.464844 46.667969 540.375 64.398438 570.847656 L 63.523438 571.355469 C 45.6875 540.691406 38.304688 503.5625 42.746094 466.785156 C 45.539062 443.65625 52.714844 422.035156 64.070312 402.511719 C 70.558594 391.375 78.46875 380.886719 87.613281 371.328125 C 112.253906 345.582031 145.113281 327.363281 180.148438 320.015625 C 189.519531 318.046875 199.140625 316.839844 208.75 316.4375 C 218.609375 316.023438 228.59375 316.328125 237.90625 316.726562 C 240.398438 316.835938 242.886719 316.945312 245.386719 317.058594 C 262.277344 317.824219 279.753906 318.621094 296 316.679688 C 314.507812 314.484375 329.496094 309.027344 341.816406 299.988281 C 347.910156 295.519531 353.53125 289.949219 358.527344 283.453125 C 372.285156 265.457031 379.769531 242.535156 385.273438 222.5 C 385.847656 220.429688 386.410156 218.339844 386.96875 216.253906 L 387.84375 212.976562 C 393.953125 190.214844 400.28125 166.667969 413.167969 146.972656 C 415.246094 143.792969 417.472656 140.753906 419.804688 137.917969 C 439.066406 114.472656 467.847656 101.371094 498.136719 88.929688 C 513.523438 82.621094 529.175781 76.339844 544.308594 70.261719 C 560.238281 63.871094 576.71875 57.25 592.917969 50.59375 C 608.507812 44.179688 622.578125 38.21875 635.914062 32.382812 C 654.109375 24.417969 674.617188 17.628906 688.613281 27.652344 Z M 688.617188 27.667969 " fill-opacity="1" fill-rule="nonzero"/></g></g></g></g><g clip-path="url(#5688193017)"><g clip-path="url(#c954e444b3)"><g clip-path="url(#441f86e186)"><g clip-path="url(#6240541e0d)"><path fill="#29abe2" d="M 682.757812 26.792969 L 682.113281 27.570312 C 668.070312 16.035156 647.121094 22.921875 630.433594 30.214844 L 495.464844 89.207031 C 468.898438 100.816406 438.789062 113.976562 418.921875 137.976562 C 402.164062 158.214844 394.316406 184.226562 386.714844 209.375 C 385.566406 213.160156 384.425781 216.9375 383.265625 220.6875 C 374.558594 248.65625 362.175781 279.558594 336.308594 296.804688 C 309.890625 314.425781 276.878906 313.171875 244.960938 311.972656 C 231.089844 311.449219 216.75 310.910156 203.089844 311.902344 C 144.9375 316.15625 89.949219 352.304688 62.996094 403.984375 C 36.050781 455.671875 37.882812 521.453125 67.691406 571.578125 L 66.828125 572.09375 C 36.851562 521.683594 34.996094 455.519531 62.109375 403.519531 C 89.199219 351.535156 144.527344 315.179688 203.023438 310.898438 C 216.738281 309.890625 231.109375 310.4375 245 310.964844 C 276.769531 312.164062 309.613281 313.398438 335.753906 295.964844 C 361.347656 278.898438 373.652344 248.183594 382.300781 220.390625 C 383.472656 216.644531 384.605469 212.875 385.753906 209.089844 C 393.378906 183.839844 401.265625 157.734375 418.152344 137.335938 C 438.179688 113.152344 468.402344 99.941406 495.0625 88.28125 L 630.035156 29.292969 C 646.980469 21.882812 668.289062 14.910156 682.757812 26.792969 Z M 682.757812 26.792969 " fill-opacity="1" fill-rule="nonzero"/></g></g></g></g></svg>